<?xml version="1.0" encoding="UTF-8" standalone="no"?>
<!DOCTYPE svg PUBLIC "-//W3C//DTD SVG 1.1//EN" "http://www.w3.org/Graphics/SVG/1.1/DTD/svg11.dtd">
<svg width="100%" height="100%" viewBox="0 0 10405 7167" version="1.1" xmlns="http://www.w3.org/2000/svg" xmlns:xlink="http://www.w3.org/1999/xlink" xml:space="preserve" xmlns:serif="http://www.serif.com/" style="fill-rule:evenodd;clip-rule:evenodd;stroke-linejoin:round;stroke-miterlimit:2;">
    <g transform="matrix(6.38411,0,0,6.38411,-2031.17,-1935.28)">
        <rect x="980.368" y="461.457" width="62.512" height="80.133" style="fill:rgb(2,43,85);fill-rule:nonzero;"/>
        <path d="M1766.02,591.161L1666.91,591.161L1666.91,461.421L1604.39,461.421L1604.39,591.161L1543.39,591.161L1543.39,637.713L1604.39,637.713L1604.39,851.209C1604.39,885.764 1632.39,913.778 1666.91,913.778L1666.91,637.713L1766.02,637.713L1766.02,591.161Z" style="fill:rgb(2,43,85);fill-rule:nonzero;"/>
        <path d="M682.429,924.698C606.175,924.698 561.186,868.987 561.186,779.693C561.186,690.405 606.175,634.695 682.429,634.695C758.672,634.695 803.661,688.881 803.661,779.693C803.661,871.277 758.672,924.698 682.429,924.698ZM706.83,583.56C619.903,583.56 568.048,632.402 568.048,714.824L566.528,714.824L566.528,420.83L504,420.83L504,968.961L566.528,968.961L566.528,844.565L568.048,844.565C568.048,926.987 619.903,976.584 706.83,976.584C807.471,976.584 867.708,903.323 867.708,779.693C867.708,656.824 807.471,583.56 706.83,583.56Z" style="fill:rgb(2,43,85);fill-rule:nonzero;"/>
        <path d="M917.854,590.938L897.492,590.938L897.492,653.507L980.368,653.507C980.368,618.952 952.383,590.938 917.854,590.938Z" style="fill:rgb(2,43,85);fill-rule:nonzero;"/>
        <path d="M1666.91,913.778C1666.91,948.334 1694.9,976.347 1729.43,976.347L1766.04,976.347L1766.04,913.778L1666.91,913.778Z" style="fill:rgb(2,43,85);fill-rule:nonzero;"/>
        <path d="M1297.59,924.698C1221.34,924.698 1177.12,871.277 1177.12,779.693C1177.12,688.881 1221.34,634.695 1297.59,634.695C1374.6,634.695 1418.83,690.405 1418.83,779.693C1418.83,868.987 1374.6,924.698 1297.59,924.698ZM1414.25,714.824L1412.73,714.824C1412.73,632.402 1360.12,583.56 1273.19,583.56C1172.54,583.56 1113.07,656.824 1113.07,779.693C1113.07,903.323 1172.54,976.584 1273.19,976.584C1360.12,976.584 1412.73,926.987 1412.73,844.565L1414.25,844.565L1414.25,968.961L1476.78,968.961L1476.78,420.83L1414.25,420.83L1414.25,714.824Z" style="fill:rgb(2,43,85);fill-rule:nonzero;"/>
        <path d="M980.368,653.506L980.368,906.39C980.368,940.945 1008.36,968.959 1042.88,968.959L1042.88,716.075C1042.88,681.52 1014.9,653.506 980.368,653.506Z" style="fill:rgb(2,43,85);fill-rule:nonzero;"/>
        <path d="M510.093,1115.04L510.093,1144.65L526.787,1144.65C533.156,1144.65 538.091,1143.6 541.591,1141.5C545.091,1139.4 546.841,1135.51 546.841,1129.84C546.841,1124.17 544.934,1120.29 541.118,1118.19C537.304,1116.09 532.002,1115.04 525.212,1115.04L510.093,1115.04ZM510.093,1082.91L510.093,1109.68L523.427,1109.68C529.866,1109.68 534.819,1108.72 538.284,1106.79C541.749,1104.87 543.481,1101.32 543.481,1096.14C543.481,1091.03 541.854,1087.55 538.599,1085.69C535.344,1083.84 530.427,1082.91 523.847,1082.91L510.093,1082.91ZM546.159,1106.79C543.534,1109.49 540.331,1111.29 536.552,1112.2L536.552,1112.31C542.011,1112.8 546.193,1114.56 549.099,1117.61C552.003,1120.65 553.456,1124.73 553.456,1129.84C553.456,1137.12 551.093,1142.3 546.368,1145.38C541.644,1148.46 535.257,1150 527.207,1150L503.897,1150L503.897,1077.55L523.847,1077.55C531.757,1077.55 538.108,1078.9 542.903,1081.6C547.698,1084.29 550.096,1089.14 550.096,1096.14C550.096,1100.55 548.783,1104.1 546.159,1106.79Z" style="fill:rgb(2,43,85);fill-rule:nonzero;"/>
        <path d="M571.202,1140.18C571.972,1141.48 572.952,1142.56 574.142,1143.44C575.331,1144.31 576.696,1144.98 578.236,1145.43C579.776,1145.89 581.316,1146.12 582.856,1146.12C588.876,1146.12 593.355,1144.31 596.296,1140.71C599.235,1137.1 600.706,1132.29 600.706,1126.27L600.706,1122.91L588.001,1124.38C582.751,1124.94 578.446,1125.97 575.087,1127.48C571.727,1128.98 570.047,1131.7 570.047,1135.62C570.047,1137.37 570.432,1138.89 571.202,1140.18ZM593.985,1147.53C590.766,1149.88 586.776,1151.05 582.017,1151.05C579.566,1151.05 577.222,1150.72 574.981,1150.05C572.741,1149.39 570.8,1148.39 569.154,1147.06C567.509,1145.73 566.196,1144.07 565.217,1142.07C564.237,1140.08 563.747,1137.75 563.747,1135.09C563.747,1132.43 564.342,1130.19 565.532,1128.37C566.722,1126.55 568.314,1125.08 570.31,1123.96C572.304,1122.84 574.667,1121.97 577.396,1121.34C580.126,1120.71 582.996,1120.22 586.006,1119.87L600.706,1118.29L600.706,1116.3C600.706,1112.24 599.551,1108.74 597.241,1105.8C594.931,1102.86 591.221,1101.39 586.111,1101.39C581.281,1101.39 577.712,1102.66 575.401,1105.22C573.092,1107.77 571.866,1110.73 571.727,1114.09L565.742,1114.09C566.022,1109.12 567.912,1104.94 571.411,1101.55C574.911,1098.15 579.812,1096.45 586.111,1096.45C588.911,1096.45 591.554,1096.84 594.038,1097.61C596.523,1098.38 598.693,1099.59 600.548,1101.23C602.403,1102.87 603.873,1105.01 604.958,1107.63C606.043,1110.26 606.585,1113.39 606.585,1117.03L606.585,1150L600.915,1150L600.915,1138.35L600.811,1138.35C599.48,1142.13 597.206,1145.19 593.985,1147.53Z" style="fill:rgb(2,43,85);fill-rule:nonzero;"/>
        <path d="M622.126,1097.5L639.766,1149.68L657.404,1097.5L663.6,1097.5L645.75,1150L633.78,1150L615.931,1097.5L622.126,1097.5Z" style="fill:rgb(2,43,85);fill-rule:nonzero;"/>
        <path d="M676.728,1140.18C677.497,1141.48 678.478,1142.56 679.667,1143.44C680.857,1144.31 682.222,1144.98 683.762,1145.43C685.302,1145.89 686.842,1146.12 688.382,1146.12C694.401,1146.12 698.882,1144.31 701.821,1140.71C704.761,1137.1 706.231,1132.29 706.231,1126.27L706.231,1122.91L693.526,1124.38C688.276,1124.94 683.972,1125.97 680.612,1127.48C677.252,1128.98 675.572,1131.7 675.572,1135.62C675.572,1137.37 675.957,1138.89 676.728,1140.18ZM699.512,1147.53C696.292,1149.88 692.302,1151.05 687.542,1151.05C685.092,1151.05 682.747,1150.72 680.507,1150.05C678.268,1149.39 676.325,1148.39 674.68,1147.06C673.035,1145.73 671.723,1144.07 670.743,1142.07C669.763,1140.08 669.272,1137.75 669.272,1135.09C669.272,1132.43 669.868,1130.19 671.058,1128.37C672.247,1126.55 673.84,1125.08 675.835,1123.96C677.83,1122.84 680.192,1121.97 682.922,1121.34C685.651,1120.71 688.522,1120.22 691.532,1119.87L706.231,1118.29L706.231,1116.3C706.231,1112.24 705.076,1108.74 702.767,1105.8C700.456,1102.86 696.747,1101.39 691.637,1101.39C686.807,1101.39 683.237,1102.66 680.927,1105.22C678.617,1107.77 677.393,1110.73 677.252,1114.09L671.268,1114.09C671.548,1109.12 673.438,1104.94 676.938,1101.55C680.438,1098.15 685.337,1096.45 691.637,1096.45C694.437,1096.45 697.079,1096.84 699.563,1097.61C702.049,1098.38 704.219,1099.59 706.073,1101.23C707.929,1102.87 709.398,1105.01 710.483,1107.63C711.568,1110.26 712.11,1113.39 712.11,1117.03L712.11,1150L706.441,1150L706.441,1138.35L706.336,1138.35C705.006,1142.13 702.731,1145.19 699.512,1147.53Z" style="fill:rgb(2,43,85);fill-rule:nonzero;"/>
        <path d="M728.491,1150L728.491,1097.5L734.161,1097.5L734.161,1108.11L734.371,1108.11C735.911,1104.19 738.133,1101.26 741.038,1099.34C743.942,1097.42 747.565,1096.45 751.905,1096.45L751.905,1102.75L750.435,1102.75C745.535,1102.75 741.633,1104.05 738.728,1106.64C735.823,1109.23 734.371,1113.25 734.371,1118.71L734.371,1150L728.491,1150Z" style="fill:rgb(2,43,85);fill-rule:nonzero;"/>
        <path d="M762.405,1150L762.405,1097.5L768.286,1097.5L768.286,1150L762.405,1150ZM761.985,1087.74L761.985,1077.55L768.811,1077.55L768.811,1087.74L761.985,1087.74Z" style="fill:rgb(2,43,85);fill-rule:nonzero;"/>
        <path d="M788.759,1140.18C789.529,1141.48 790.509,1142.56 791.699,1143.44C792.89,1144.31 794.254,1144.98 795.794,1145.43C797.334,1145.89 798.874,1146.12 800.414,1146.12C806.434,1146.12 810.913,1144.31 813.854,1140.71C816.793,1137.1 818.263,1132.29 818.263,1126.27L818.263,1122.91L805.559,1124.38C800.309,1124.94 796.004,1125.97 792.644,1127.48C789.284,1128.98 787.604,1131.7 787.604,1135.62C787.604,1137.37 787.989,1138.89 788.759,1140.18ZM811.544,1147.53C808.323,1149.88 804.334,1151.05 799.574,1151.05C797.124,1151.05 794.779,1150.72 792.539,1150.05C790.3,1149.39 788.356,1148.39 786.712,1147.06C785.067,1145.73 783.755,1144.07 782.774,1142.07C781.795,1140.08 781.305,1137.75 781.305,1135.09C781.305,1132.43 781.899,1130.19 783.09,1128.37C784.279,1126.55 785.872,1125.08 787.867,1123.96C789.862,1122.84 792.224,1121.97 794.954,1121.34C797.684,1120.71 800.554,1120.22 803.563,1119.87L818.263,1118.29L818.263,1116.3C818.263,1112.24 817.108,1108.74 814.798,1105.8C812.488,1102.86 808.778,1101.39 803.669,1101.39C798.839,1101.39 795.269,1102.66 792.959,1105.22C790.649,1107.77 789.425,1110.73 789.284,1114.09L783.3,1114.09C783.579,1109.12 785.47,1104.94 788.97,1101.55C792.47,1098.15 797.369,1096.45 803.669,1096.45C806.469,1096.45 809.111,1096.84 811.596,1097.61C814.081,1098.38 816.251,1099.59 818.105,1101.23C819.96,1102.87 821.431,1105.01 822.516,1107.63C823.601,1110.26 824.143,1113.39 824.143,1117.03L824.143,1150L818.474,1150L818.474,1138.35L818.368,1138.35C817.038,1142.13 814.763,1145.19 811.544,1147.53Z" style="fill:rgb(2,43,85);fill-rule:nonzero;"/>
        <path d="M840.522,1150L840.522,1097.5L846.192,1097.5L846.192,1108.11L846.403,1108.11C847.942,1104.26 850.147,1101.35 853.018,1099.39C855.888,1097.43 859.282,1096.45 863.202,1096.45C868.662,1096.45 873.019,1098.24 876.274,1101.81C879.528,1105.38 881.156,1109.93 881.156,1115.46L881.156,1150L875.276,1150L875.276,1117.98C875.276,1112.38 874.017,1108.23 871.497,1105.53C868.977,1102.84 865.442,1101.49 860.892,1101.49C856.343,1101.49 852.79,1102.93 850.235,1105.8C847.681,1108.67 846.403,1112.34 846.403,1116.82L846.403,1150L840.522,1150Z" style="fill:rgb(2,43,85);fill-rule:nonzero;"/>
        <path d="M932.606,1082.91L932.606,1113.04L948.985,1113.04C954.865,1113.04 959.678,1111.89 963.423,1109.58C967.167,1107.27 969.04,1103.38 969.04,1097.92C969.04,1092.39 967.167,1088.51 963.423,1086.27C959.678,1084.03 954.865,1082.91 948.985,1082.91L932.606,1082.91ZM926.411,1077.55L948.461,1077.55C956.931,1077.55 963.58,1079.27 968.41,1082.7C973.239,1086.13 975.655,1091.2 975.655,1097.92C975.655,1103.24 974.114,1107.55 971.035,1110.84C967.955,1114.13 963.615,1116.33 958.016,1117.45L977.02,1150L969.88,1150L951.506,1118.19C951.016,1118.26 950.509,1118.29 949.983,1118.29L932.606,1118.29L932.606,1150L926.411,1150L926.411,1077.55Z" style="fill:rgb(2,43,85);fill-rule:nonzero;"/>
        <path d="M997.444,1106.74C994.329,1110.31 992.562,1114.9 992.142,1120.5L1026.9,1120.5C1026.62,1115.04 1024.94,1110.49 1021.86,1106.85C1018.78,1103.21 1014.68,1101.39 1009.57,1101.39C1004.6,1101.39 1000.56,1103.17 997.444,1106.74ZM1029.73,1140.18C1028.68,1142.32 1027.26,1144.19 1025.48,1145.8C1023.69,1147.41 1021.51,1148.69 1018.92,1149.63C1016.33,1150.58 1013.32,1151.05 1009.89,1151.05C1006.18,1151.05 1002.83,1150.3 999.859,1148.79C996.884,1147.29 994.399,1145.29 992.404,1142.81C990.409,1140.32 988.87,1137.42 987.784,1134.09C986.7,1130.77 986.157,1127.32 986.157,1123.75C986.157,1120.18 986.683,1116.73 987.732,1113.41C988.782,1110.08 990.322,1107.18 992.353,1104.69C994.382,1102.21 996.85,1100.22 999.754,1098.71C1002.66,1097.21 1005.93,1096.45 1009.57,1096.45C1013.28,1096.45 1016.64,1097.21 1019.65,1098.71C1022.66,1100.22 1025.16,1102.28 1027.16,1104.9C1029.15,1107.53 1030.66,1110.61 1031.67,1114.14C1032.69,1117.68 1033.06,1121.44 1032.78,1125.43L992.142,1125.43C992.212,1128.3 992.685,1131.01 993.56,1133.57C994.435,1136.12 995.642,1138.33 997.182,1140.18C998.722,1142.04 1000.63,1143.49 1002.9,1144.54C1005.18,1145.59 1007.75,1146.12 1010.62,1146.12C1013.21,1146.12 1015.42,1145.73 1017.24,1144.96C1019.06,1144.19 1020.56,1143.19 1021.75,1141.97C1022.94,1140.74 1023.89,1139.38 1024.59,1137.87C1025.29,1136.37 1025.78,1134.88 1026.06,1133.41L1031.94,1133.41C1031.52,1135.79 1030.78,1138.05 1029.73,1140.18Z" style="fill:rgb(2,43,85);fill-rule:nonzero;"/>
        <path d="M1079.18,1146.96C1075.61,1149.68 1070.68,1151.05 1064.38,1151.05C1060.95,1151.05 1057.91,1150.53 1055.25,1149.47C1052.58,1148.42 1050.33,1147.01 1048.47,1145.22C1046.62,1143.44 1045.17,1141.37 1044.12,1139.03C1043.07,1136.68 1042.47,1134.22 1042.33,1131.63L1048.32,1131.63C1048.46,1133.45 1048.88,1135.25 1049.58,1137.03C1050.28,1138.82 1051.29,1140.38 1052.62,1141.71C1053.95,1143.04 1055.61,1144.1 1057.61,1144.91C1059.6,1145.71 1061.9,1146.12 1064.49,1146.12C1068.68,1146.12 1072.1,1145.19 1074.72,1143.33C1077.35,1141.48 1078.66,1139.05 1078.66,1136.04C1078.66,1133.24 1077.61,1131.15 1075.51,1129.79C1073.41,1128.42 1070.12,1127.22 1065.64,1126.17L1059.76,1124.8C1054.93,1123.68 1051.06,1122.07 1048.16,1119.97C1045.25,1117.87 1043.8,1114.86 1043.8,1110.94C1043.8,1106.95 1045.53,1103.54 1049,1100.7C1052.46,1097.87 1056.92,1096.45 1062.38,1096.45C1067.98,1096.45 1072.74,1098.01 1076.66,1101.12C1080.58,1104.24 1082.72,1108.21 1083.07,1113.04L1077.08,1113.04C1076.73,1109.82 1075.3,1107.07 1072.78,1104.8C1070.26,1102.52 1066.79,1101.39 1062.38,1101.39C1058.88,1101.39 1055.89,1102.17 1053.41,1103.75C1050.92,1105.32 1049.68,1107.58 1049.68,1110.52C1049.68,1113.11 1050.82,1114.97 1053.09,1116.09C1055.37,1117.21 1058.4,1118.22 1062.17,1119.13L1068.16,1120.5C1073.83,1121.83 1077.98,1123.61 1080.6,1125.85C1083.23,1128.09 1084.54,1131.42 1084.54,1135.83C1084.54,1140.52 1082.75,1144.23 1079.18,1146.96Z" style="fill:rgb(2,43,85);fill-rule:nonzero;"/>
        <path d="M1105.7,1106.74C1102.58,1110.31 1100.81,1114.9 1100.39,1120.5L1135.15,1120.5C1134.87,1115.04 1133.19,1110.49 1130.11,1106.85C1127.03,1103.21 1122.93,1101.39 1117.82,1101.39C1112.85,1101.39 1108.81,1103.17 1105.7,1106.74ZM1137.98,1140.18C1136.93,1142.32 1135.52,1144.19 1133.73,1145.8C1131.95,1147.41 1129.76,1148.69 1127.17,1149.63C1124.58,1150.58 1121.57,1151.05 1118.14,1151.05C1114.43,1151.05 1111.09,1150.3 1108.11,1148.79C1105.14,1147.29 1102.65,1145.29 1100.66,1142.81C1098.66,1140.32 1097.12,1137.42 1096.04,1134.09C1094.95,1130.77 1094.41,1127.32 1094.41,1123.75C1094.41,1120.18 1094.93,1116.73 1095.98,1113.41C1097.03,1110.08 1098.57,1107.18 1100.6,1104.69C1102.63,1102.21 1105.1,1100.22 1108.01,1098.71C1110.91,1097.21 1114.18,1096.45 1117.82,1096.45C1121.53,1096.45 1124.89,1097.21 1127.9,1098.71C1130.91,1100.22 1133.42,1102.28 1135.41,1104.9C1137.41,1107.53 1138.91,1110.61 1139.92,1114.14C1140.94,1117.68 1141.31,1121.44 1141.03,1125.43L1100.39,1125.43C1100.46,1128.3 1100.94,1131.01 1101.81,1133.57C1102.69,1136.12 1103.89,1138.33 1105.43,1140.18C1106.97,1142.04 1108.88,1143.49 1111.16,1144.54C1113.43,1145.59 1116,1146.12 1118.87,1146.12C1121.46,1146.12 1123.67,1145.73 1125.49,1144.96C1127.31,1144.19 1128.81,1143.19 1130,1141.97C1131.19,1140.74 1132.14,1139.38 1132.84,1137.87C1133.54,1136.37 1134.03,1134.88 1134.31,1133.41L1140.19,1133.41C1139.77,1135.79 1139.03,1138.05 1137.98,1140.18Z" style="fill:rgb(2,43,85);fill-rule:nonzero;"/>
        <path d="M1158.04,1140.18C1158.81,1141.48 1159.79,1142.56 1160.98,1143.44C1162.17,1144.31 1163.53,1144.98 1165.07,1145.43C1166.61,1145.89 1168.15,1146.12 1169.69,1146.12C1175.71,1146.12 1180.19,1144.31 1183.13,1140.71C1186.07,1137.1 1187.54,1132.29 1187.54,1126.27L1187.54,1122.91L1174.84,1124.38C1169.59,1124.94 1165.28,1125.97 1161.92,1127.48C1158.56,1128.98 1156.88,1131.7 1156.88,1135.62C1156.88,1137.37 1157.27,1138.89 1158.04,1140.18ZM1180.82,1147.53C1177.6,1149.88 1173.61,1151.05 1168.85,1151.05C1166.4,1151.05 1164.06,1150.72 1161.82,1150.05C1159.58,1149.39 1157.64,1148.39 1155.99,1147.06C1154.35,1145.73 1153.03,1144.07 1152.05,1142.07C1151.07,1140.08 1150.58,1137.75 1150.58,1135.09C1150.58,1132.43 1151.18,1130.19 1152.37,1128.37C1153.56,1126.55 1155.15,1125.08 1157.15,1123.96C1159.14,1122.84 1161.5,1121.97 1164.23,1121.34C1166.96,1120.71 1169.83,1120.22 1172.84,1119.87L1187.54,1118.29L1187.54,1116.3C1187.54,1112.24 1186.39,1108.74 1184.08,1105.8C1181.77,1102.86 1178.06,1101.39 1172.95,1101.39C1168.12,1101.39 1164.55,1102.66 1162.24,1105.22C1159.93,1107.77 1158.7,1110.73 1158.56,1114.09L1152.58,1114.09C1152.86,1109.12 1154.75,1104.94 1158.25,1101.55C1161.75,1098.15 1166.65,1096.45 1172.95,1096.45C1175.75,1096.45 1178.39,1096.84 1180.87,1097.61C1183.36,1098.38 1185.53,1099.59 1187.38,1101.23C1189.24,1102.87 1190.71,1105.01 1191.79,1107.63C1192.88,1110.26 1193.42,1113.39 1193.42,1117.03L1193.42,1150L1187.75,1150L1187.75,1138.35L1187.65,1138.35C1186.32,1142.13 1184.04,1145.19 1180.82,1147.53Z" style="fill:rgb(2,43,85);fill-rule:nonzero;"/>
        <path d="M1209.8,1150L1209.8,1097.5L1215.47,1097.5L1215.47,1108.11L1215.68,1108.11C1217.22,1104.19 1219.44,1101.26 1222.35,1099.34C1225.25,1097.42 1228.88,1096.45 1233.22,1096.45L1233.22,1102.75L1231.75,1102.75C1226.85,1102.75 1222.94,1104.05 1220.04,1106.64C1217.13,1109.23 1215.68,1113.25 1215.68,1118.71L1215.68,1150L1209.8,1150Z" style="fill:rgb(2,43,85);fill-rule:nonzero;"/>
        <path d="M1277.26,1145.91C1273.38,1149.34 1268.32,1151.05 1262.09,1151.05C1258.31,1151.05 1254.9,1150.32 1251.85,1148.84C1248.81,1147.38 1246.22,1145.4 1244.08,1142.91C1241.95,1140.43 1240.32,1137.52 1239.2,1134.2C1238.08,1130.87 1237.52,1127.39 1237.52,1123.75C1237.52,1120.18 1238.06,1116.73 1239.15,1113.41C1240.23,1110.08 1241.81,1107.18 1243.87,1104.69C1245.94,1102.21 1248.46,1100.22 1251.43,1098.71C1254.41,1097.21 1257.79,1096.45 1261.57,1096.45C1267.8,1096.45 1272.84,1098.11 1276.69,1101.44C1280.54,1104.76 1282.99,1109.3 1284.04,1115.04L1278.05,1115.04C1277.21,1110.49 1275.34,1107.07 1272.43,1104.8C1269.53,1102.52 1265.98,1101.39 1261.78,1101.39C1258.98,1101.39 1256.46,1101.97 1254.22,1103.12C1251.98,1104.27 1250.1,1105.85 1248.6,1107.84C1247.09,1109.84 1245.94,1112.2 1245.13,1114.93C1244.33,1117.66 1243.93,1120.6 1243.93,1123.75C1243.93,1126.97 1244.35,1129.95 1245.19,1132.68C1246.03,1135.41 1247.23,1137.77 1248.81,1139.76C1250.38,1141.76 1252.33,1143.32 1254.64,1144.44C1256.95,1145.56 1259.54,1146.12 1262.41,1146.12C1266.61,1146.12 1270.16,1144.92 1273.06,1142.55C1275.97,1140.17 1277.81,1136.74 1278.58,1132.26L1284.56,1132.26C1283.58,1137.93 1281.15,1142.48 1277.26,1145.91Z" style="fill:rgb(2,43,85);fill-rule:nonzero;"/>
        <path d="M1297.16,1150L1297.16,1077.55L1302.83,1077.55L1302.83,1108.11L1303.04,1108.11C1304.58,1104.26 1306.79,1101.35 1309.66,1099.39C1312.53,1097.43 1315.92,1096.45 1319.84,1096.45C1325.3,1096.45 1329.66,1098.24 1332.91,1101.81C1336.17,1105.38 1337.79,1109.93 1337.79,1115.46L1337.79,1150L1331.92,1150L1331.92,1117.98C1331.92,1112.38 1330.66,1108.23 1328.14,1105.53C1325.62,1102.84 1322.08,1101.49 1317.53,1101.49C1312.98,1101.49 1309.43,1102.93 1306.87,1105.8C1304.32,1108.67 1303.04,1112.34 1303.04,1116.82L1303.04,1150L1297.16,1150Z" style="fill:rgb(2,43,85);fill-rule:nonzero;"/>
        <rect x="1383.05" y="1077.55" width="6.2" height="72.45" style="fill:rgb(2,43,85);fill-rule:nonzero;"/>
        <path d="M1408.35,1150L1408.35,1097.5L1414.02,1097.5L1414.02,1108.11L1414.23,1108.11C1415.77,1104.26 1417.98,1101.35 1420.85,1099.39C1423.72,1097.43 1427.11,1096.45 1431.03,1096.45C1436.49,1096.45 1440.85,1098.24 1444.1,1101.81C1447.36,1105.38 1448.99,1109.93 1448.99,1115.46L1448.99,1150L1443.11,1150L1443.11,1117.98C1443.11,1112.38 1441.85,1108.23 1439.33,1105.53C1436.81,1102.84 1433.27,1101.49 1428.72,1101.49C1424.17,1101.49 1420.62,1102.93 1418.07,1105.8C1415.51,1108.67 1414.23,1112.34 1414.23,1116.82L1414.23,1150L1408.35,1150Z" style="fill:rgb(2,43,85);fill-rule:nonzero;"/>
        <path d="M1498.23,1146.96C1494.66,1149.68 1489.73,1151.05 1483.43,1151.05C1480,1151.05 1476.95,1150.53 1474.29,1149.47C1471.63,1148.42 1469.38,1147.01 1467.52,1145.22C1465.67,1143.44 1464.21,1141.37 1463.16,1139.03C1462.11,1136.68 1461.52,1134.22 1461.38,1131.63L1467.36,1131.63C1467.5,1133.45 1467.92,1135.25 1468.62,1137.03C1469.32,1138.82 1470.34,1140.38 1471.67,1141.71C1473,1143.04 1474.66,1144.1 1476.66,1144.91C1478.65,1145.71 1480.94,1146.12 1483.53,1146.12C1487.73,1146.12 1491.15,1145.19 1493.77,1143.33C1496.4,1141.48 1497.71,1139.05 1497.71,1136.04C1497.71,1133.24 1496.66,1131.15 1494.56,1129.79C1492.46,1128.42 1489.17,1127.22 1484.69,1126.17L1478.81,1124.8C1473.98,1123.68 1470.11,1122.07 1467.21,1119.97C1464.3,1117.87 1462.85,1114.86 1462.85,1110.94C1462.85,1106.95 1464.58,1103.54 1468.05,1100.7C1471.51,1097.87 1475.97,1096.45 1481.43,1096.45C1487.03,1096.45 1491.79,1098.01 1495.71,1101.12C1499.63,1104.24 1501.77,1108.21 1502.12,1113.04L1496.13,1113.04C1495.78,1109.82 1494.35,1107.07 1491.83,1104.8C1489.31,1102.52 1485.84,1101.39 1481.43,1101.39C1477.93,1101.39 1474.94,1102.17 1472.46,1103.75C1469.97,1105.32 1468.73,1107.58 1468.73,1110.52C1468.73,1113.11 1469.87,1114.97 1472.14,1116.09C1474.42,1117.21 1477.44,1118.22 1481.22,1119.13L1487.21,1120.5C1492.88,1121.83 1497.02,1123.61 1499.65,1125.85C1502.27,1128.09 1503.59,1131.42 1503.59,1135.83C1503.59,1140.52 1501.8,1144.23 1498.23,1146.96Z" style="fill:rgb(2,43,85);fill-rule:nonzero;"/>
        <path d="M1530.05,1150C1526.48,1150 1523.85,1149.09 1522.17,1147.27C1520.49,1145.45 1519.65,1142.93 1519.65,1139.71L1519.65,1102.44L1509.26,1102.44L1509.26,1097.5L1519.65,1097.5L1519.65,1085.53L1525.53,1085.53L1525.53,1097.5L1539.81,1097.5L1539.81,1102.44L1525.53,1102.44L1525.53,1138.98C1525.53,1141.15 1526,1142.7 1526.95,1143.65C1527.9,1144.59 1529.35,1145.07 1531.31,1145.07L1539.39,1145.07L1539.39,1150L1530.05,1150Z" style="fill:rgb(2,43,85);fill-rule:nonzero;"/>
        <path d="M1550.21,1150L1550.21,1097.5L1556.09,1097.5L1556.09,1150L1550.21,1150ZM1549.79,1087.74L1549.79,1077.55L1556.61,1077.55L1556.61,1087.74L1549.79,1087.74Z" style="fill:rgb(2,43,85);fill-rule:nonzero;"/>
        <path d="M1587.38,1150C1583.81,1150 1581.18,1149.09 1579.5,1147.27C1577.82,1145.45 1576.98,1142.93 1576.98,1139.71L1576.98,1102.44L1566.59,1102.44L1566.59,1097.5L1576.98,1097.5L1576.98,1085.53L1582.86,1085.53L1582.86,1097.5L1597.14,1097.5L1597.14,1102.44L1582.86,1102.44L1582.86,1138.98C1582.86,1141.15 1583.33,1142.7 1584.28,1143.65C1585.22,1144.59 1586.67,1145.07 1588.63,1145.07L1596.72,1145.07L1596.72,1150L1587.38,1150Z" style="fill:rgb(2,43,85);fill-rule:nonzero;"/>
        <path d="M1634.78,1148.11C1632.08,1150.07 1628.85,1151.05 1625.07,1151.05C1619.47,1151.05 1615.04,1149.26 1611.79,1145.7C1608.53,1142.13 1606.9,1137.58 1606.9,1132.05L1606.9,1097.5L1612.78,1097.5L1612.78,1129.53C1612.78,1135.13 1614.04,1139.27 1616.56,1141.97C1619.08,1144.66 1622.58,1146.01 1627.06,1146.01C1631.68,1146.01 1635.18,1144.58 1637.56,1141.71C1639.94,1138.84 1641.13,1135.16 1641.13,1130.68L1641.13,1097.5L1647.01,1097.5L1647.01,1150L1641.34,1150L1641.34,1139.4L1641.13,1139.4C1639.59,1143.25 1637.48,1146.15 1634.78,1148.11Z" style="fill:rgb(2,43,85);fill-rule:nonzero;"/>
        <path d="M1678.3,1150C1674.73,1150 1672.11,1149.09 1670.43,1147.27C1668.75,1145.45 1667.91,1142.93 1667.91,1139.71L1667.91,1102.44L1657.51,1102.44L1657.51,1097.5L1667.91,1097.5L1667.91,1085.53L1673.79,1085.53L1673.79,1097.5L1688.07,1097.5L1688.07,1102.44L1673.79,1102.44L1673.79,1138.98C1673.79,1141.15 1674.26,1142.7 1675.21,1143.65C1676.15,1144.59 1677.6,1145.07 1679.56,1145.07L1687.65,1145.07L1687.65,1150L1678.3,1150Z" style="fill:rgb(2,43,85);fill-rule:nonzero;"/>
        <path d="M1705.66,1106.74C1702.54,1110.31 1700.77,1114.9 1700.35,1120.5L1735.11,1120.5C1734.83,1115.04 1733.15,1110.49 1730.07,1106.85C1726.99,1103.21 1722.89,1101.39 1717.78,1101.39C1712.81,1101.39 1708.77,1103.17 1705.66,1106.74ZM1737.94,1140.18C1736.89,1142.32 1735.47,1144.19 1733.69,1145.8C1731.9,1147.41 1729.72,1148.69 1727.13,1149.63C1724.54,1150.58 1721.53,1151.05 1718.1,1151.05C1714.39,1151.05 1711.04,1150.3 1708.07,1148.79C1705.09,1147.29 1702.61,1145.29 1700.62,1142.81C1698.62,1140.32 1697.08,1137.42 1696,1134.09C1694.91,1130.77 1694.37,1127.32 1694.37,1123.75C1694.37,1120.18 1694.89,1116.73 1695.94,1113.41C1696.99,1110.08 1698.53,1107.18 1700.56,1104.69C1702.59,1102.21 1705.06,1100.22 1707.96,1098.71C1710.87,1097.21 1714.14,1096.45 1717.78,1096.45C1721.49,1096.45 1724.85,1097.21 1727.86,1098.71C1730.87,1100.22 1733.37,1102.28 1735.37,1104.9C1737.36,1107.53 1738.87,1110.61 1739.88,1114.14C1740.9,1117.68 1741.27,1121.44 1740.99,1125.43L1700.35,1125.43C1700.42,1128.3 1700.9,1131.01 1701.77,1133.57C1702.65,1136.12 1703.85,1138.33 1705.39,1140.18C1706.93,1142.04 1708.84,1143.49 1711.11,1144.54C1713.39,1145.59 1715.96,1146.12 1718.83,1146.12C1721.42,1146.12 1723.63,1145.73 1725.45,1144.96C1727.27,1144.19 1728.77,1143.19 1729.96,1141.97C1731.15,1140.74 1732.1,1139.38 1732.8,1137.87C1733.5,1136.37 1733.99,1134.88 1734.27,1133.41L1740.15,1133.41C1739.73,1135.79 1738.99,1138.05 1737.94,1140.18Z" style="fill:rgb(2,43,85);fill-rule:nonzero;"/>
        <path d="M510.476,1289.13L510.476,1241.57L499.976,1241.57L499.976,1236.63L510.476,1236.63L510.476,1226.98C510.476,1223.76 511.315,1221.24 512.995,1219.42C514.676,1217.6 517.3,1216.69 520.87,1216.69L530.11,1216.69L530.11,1221.62L522.13,1221.62C520.101,1221.62 518.63,1222.09 517.721,1223.04C516.81,1223.98 516.354,1225.54 516.354,1227.71L516.354,1236.63L530.53,1236.63L530.53,1241.57L516.354,1241.57L516.354,1289.13L510.476,1289.13Z" style="fill:rgb(2,43,85);fill-rule:nonzero;"/>
        <path d="M542.816,1271.81C543.656,1274.54 544.864,1276.9 546.438,1278.9C548.014,1280.89 549.938,1282.45 552.214,1283.57C554.488,1284.69 557.026,1285.25 559.826,1285.25C562.626,1285.25 565.163,1284.69 567.438,1283.57C569.713,1282.45 571.638,1280.89 573.213,1278.9C574.788,1276.9 575.995,1274.54 576.835,1271.81C577.675,1269.08 578.095,1266.1 578.095,1262.88C578.095,1259.66 577.675,1256.69 576.835,1253.96C575.995,1251.23 574.788,1248.87 573.213,1246.87C571.638,1244.88 569.713,1243.32 567.438,1242.2C565.163,1241.08 562.626,1240.52 559.826,1240.52C557.026,1240.52 554.488,1241.08 552.214,1242.2C549.938,1243.32 548.014,1244.88 546.438,1246.87C544.864,1248.87 543.656,1251.23 542.816,1253.96C541.977,1256.69 541.557,1259.66 541.557,1262.88C541.557,1266.1 541.977,1269.08 542.816,1271.81ZM582.819,1273.23C581.7,1276.55 580.072,1279.46 577.938,1281.94C575.803,1284.43 573.213,1286.42 570.168,1287.93C567.123,1289.43 563.676,1290.18 559.826,1290.18C555.976,1290.18 552.528,1289.43 549.483,1287.93C546.438,1286.42 543.849,1284.43 541.714,1281.94C539.579,1279.46 537.952,1276.55 536.832,1273.23C535.712,1269.9 535.151,1266.45 535.151,1262.88C535.151,1259.31 535.712,1255.87 536.832,1252.54C537.952,1249.22 539.579,1246.31 541.714,1243.83C543.849,1241.34 546.438,1239.35 549.483,1237.84C552.528,1236.34 555.976,1235.58 559.826,1235.58C563.676,1235.58 567.123,1236.34 570.168,1237.84C573.213,1239.35 575.803,1241.34 577.938,1243.83C580.072,1246.31 581.7,1249.22 582.819,1252.54C583.94,1255.87 584.5,1259.31 584.5,1262.88C584.5,1266.45 583.94,1269.9 582.819,1273.23Z" style="fill:rgb(2,43,85);fill-rule:nonzero;"/>
        <path d="M598.151,1289.13L598.151,1236.63L603.82,1236.63L603.82,1247.24L604.03,1247.24C605.57,1243.32 607.793,1240.4 610.698,1238.47C613.603,1236.55 617.226,1235.58 621.565,1235.58L621.565,1241.88L620.095,1241.88C615.195,1241.88 611.293,1243.18 608.388,1245.77C605.483,1248.36 604.03,1252.38 604.03,1257.84L604.03,1289.13L598.151,1289.13Z" style="fill:rgb(2,43,85);fill-rule:nonzero;"/>
        <path d="M664.405,1222.04L664.405,1283.78L675.851,1283.78C686.42,1283.78 694.487,1281.08 700.052,1275.69C705.616,1270.3 708.399,1262.71 708.399,1252.91C708.399,1243.11 705.616,1235.51 700.052,1230.12C694.487,1224.74 686.42,1222.04 675.851,1222.04L664.405,1222.04ZM658.211,1216.69L676.9,1216.69C683.2,1216.69 688.747,1217.61 693.542,1219.47C698.337,1221.32 702.31,1223.86 705.459,1227.08C708.608,1230.3 710.989,1234.11 712.599,1238.52C714.209,1242.93 715.014,1247.73 715.014,1252.91C715.014,1258.09 714.209,1262.88 712.599,1267.29C710.989,1271.7 708.608,1275.52 705.459,1278.74C702.31,1281.96 698.337,1284.49 693.542,1286.35C688.747,1288.2 683.2,1289.13 676.9,1289.13L658.211,1289.13L658.211,1216.69Z" style="fill:rgb(2,43,85);fill-rule:nonzero;"/>
        <path d="M729.295,1289.13L729.295,1236.63L735.175,1236.63L735.175,1289.13L729.295,1289.13ZM728.875,1226.87L728.875,1216.69L735.7,1216.69L735.7,1226.87L728.875,1226.87Z" style="fill:rgb(2,43,85);fill-rule:nonzero;"/>
        <path d="M760.269,1277.32C763.559,1281.21 768.003,1283.15 773.603,1283.15C779.202,1283.15 783.647,1281.21 786.938,1277.32C790.228,1273.44 791.872,1268.27 791.872,1261.83C791.872,1255.39 790.228,1250.23 786.938,1246.35C783.647,1242.46 779.202,1240.52 773.603,1240.52C768.003,1240.52 763.559,1242.46 760.269,1246.35C756.979,1250.23 755.334,1255.39 755.334,1261.83C755.334,1268.27 756.979,1273.44 760.269,1277.32ZM791.452,1302.68C787.393,1306.25 781.862,1308.03 774.863,1308.03C768.213,1308.03 762.911,1306.49 758.956,1303.41C755.001,1300.33 752.778,1296.06 752.289,1290.6L758.169,1290.6C758.519,1294.87 760.339,1298.02 763.628,1300.05C766.918,1302.08 770.663,1303.1 774.863,1303.1C779.553,1303.1 783.525,1301.89 786.78,1299.47C790.035,1297.06 791.662,1293.33 791.662,1288.29L791.662,1274.33L791.558,1274.33C790.018,1278.39 787.567,1281.69 784.208,1284.25C780.848,1286.81 776.858,1288.08 772.238,1288.08C768.528,1288.08 765.221,1287.4 762.315,1286.03C759.411,1284.67 756.979,1282.82 755.019,1280.47C753.059,1278.13 751.554,1275.34 750.504,1272.12C749.454,1268.9 748.929,1265.47 748.929,1261.83C748.929,1258.19 749.454,1254.76 750.504,1251.54C751.554,1248.32 753.059,1245.54 755.019,1243.2C756.979,1240.85 759.411,1239 762.315,1237.63C765.221,1236.27 768.528,1235.58 772.238,1235.58C776.858,1235.58 780.848,1236.86 784.208,1239.42C787.567,1241.97 790.018,1245.28 791.558,1249.34L791.662,1249.34L791.662,1236.63L797.542,1236.63L797.542,1288.29C797.542,1294.31 795.513,1299.11 791.452,1302.68Z" style="fill:rgb(2,43,85);fill-rule:nonzero;"/>
        <path d="M814.554,1289.13L814.554,1236.63L820.433,1236.63L820.433,1289.13L814.554,1289.13ZM814.134,1226.87L814.134,1216.69L820.958,1216.69L820.958,1226.87L814.134,1226.87Z" style="fill:rgb(2,43,85);fill-rule:nonzero;"/>
        <path d="M851.722,1289.13C848.151,1289.13 845.526,1288.22 843.847,1286.4C842.167,1284.58 841.327,1282.06 841.327,1278.84L841.327,1241.57L830.933,1241.57L830.933,1236.63L841.327,1236.63L841.327,1224.66L847.206,1224.66L847.206,1236.63L861.485,1236.63L861.485,1241.57L847.206,1241.57L847.206,1278.11C847.206,1280.28 847.679,1281.84 848.624,1282.78C849.569,1283.73 851.021,1284.2 852.981,1284.2L861.065,1284.2L861.065,1289.13L851.722,1289.13Z" style="fill:rgb(2,43,85);fill-rule:nonzero;"/>
        <path d="M875.346,1279.32C876.115,1280.61 877.096,1281.69 878.285,1282.57C879.476,1283.44 880.841,1284.11 882.38,1284.57C883.92,1285.02 885.46,1285.25 887,1285.25C893.02,1285.25 897.499,1283.44 900.439,1279.84C903.38,1276.24 904.85,1271.42 904.85,1265.4L904.85,1262.04L892.145,1263.51C886.896,1264.07 882.59,1265.11 879.23,1266.61C875.87,1268.12 874.19,1270.83 874.19,1274.75C874.19,1276.5 874.575,1278.02 875.346,1279.32ZM898.13,1286.66C894.909,1289.01 890.92,1290.18 886.16,1290.18C883.71,1290.18 881.365,1289.85 879.125,1289.19C876.886,1288.52 874.943,1287.52 873.298,1286.19C871.653,1284.86 870.341,1283.2 869.36,1281.21C868.381,1279.21 867.891,1276.88 867.891,1274.22C867.891,1271.56 868.485,1269.32 869.676,1267.5C870.866,1265.68 872.458,1264.21 874.453,1263.09C876.448,1261.97 878.811,1261.1 881.54,1260.47C884.271,1259.84 887.14,1259.35 890.149,1259L904.85,1257.42L904.85,1255.43C904.85,1251.37 903.694,1247.87 901.385,1244.93C899.074,1241.99 895.364,1240.52 890.255,1240.52C885.425,1240.52 881.855,1241.8 879.546,1244.35C877.235,1246.91 876.011,1249.86 875.87,1253.22L869.886,1253.22C870.166,1248.25 872.056,1244.07 875.556,1240.68C879.056,1237.28 883.955,1235.58 890.255,1235.58C893.055,1235.58 895.697,1235.97 898.183,1236.74C900.667,1237.51 902.837,1238.72 904.692,1240.36C906.547,1242.01 908.017,1244.14 909.102,1246.77C910.187,1249.39 910.729,1252.52 910.729,1256.16L910.729,1289.13L905.06,1289.13L905.06,1277.48L904.954,1277.48C903.624,1281.26 901.35,1284.32 898.13,1286.66Z" style="fill:rgb(2,43,85);fill-rule:nonzero;"/>
        <rect x="927.109" y="1216.69" width="5.88" height="72.44" style="fill:rgb(2,43,85);fill-rule:nonzero;"/>
        <path d="M965.853,1216.69L1022.55,1216.69L1022.55,1222.04L997.246,1222.04L997.246,1289.13L991.156,1289.13L991.156,1222.04L965.853,1222.04L965.853,1216.69Z" style="fill:rgb(2,43,85);fill-rule:nonzero;"/>
        <path d="M1023.18,1289.13L1023.18,1236.63L1028.85,1236.63L1028.85,1247.24L1029.06,1247.24C1030.6,1243.32 1032.82,1240.4 1035.73,1238.47C1038.63,1236.55 1042.26,1235.58 1046.6,1235.58L1046.6,1241.88L1045.13,1241.88C1040.23,1241.88 1036.32,1243.18 1033.42,1245.77C1030.51,1248.36 1029.06,1252.38 1029.06,1257.84L1029.06,1289.13L1023.18,1289.13Z" style="fill:rgb(2,43,85);fill-rule:nonzero;"/>
        <path d="M1059.2,1279.32C1059.97,1280.61 1060.95,1281.69 1062.14,1282.57C1063.33,1283.44 1064.69,1284.11 1066.23,1284.57C1067.77,1285.02 1069.31,1285.25 1070.85,1285.25C1076.87,1285.25 1081.35,1283.44 1084.29,1279.84C1087.23,1276.24 1088.7,1271.42 1088.7,1265.4L1088.7,1262.04L1076,1263.51C1070.75,1264.07 1066.44,1265.11 1063.08,1266.61C1059.72,1268.12 1058.04,1270.83 1058.04,1274.75C1058.04,1276.5 1058.43,1278.02 1059.2,1279.32ZM1081.98,1286.66C1078.76,1289.01 1074.77,1290.18 1070.01,1290.18C1067.56,1290.18 1065.22,1289.85 1062.98,1289.19C1060.74,1288.52 1058.8,1287.52 1057.15,1286.19C1055.51,1284.86 1054.19,1283.2 1053.21,1281.21C1052.23,1279.21 1051.74,1276.88 1051.74,1274.22C1051.74,1271.56 1052.34,1269.32 1053.53,1267.5C1054.72,1265.68 1056.31,1264.21 1058.31,1263.09C1060.3,1261.97 1062.66,1261.1 1065.39,1260.47C1068.12,1259.84 1070.99,1259.35 1074,1259L1088.7,1257.42L1088.7,1255.43C1088.7,1251.37 1087.55,1247.87 1085.24,1244.93C1082.93,1241.99 1079.22,1240.52 1074.11,1240.52C1069.28,1240.52 1065.71,1241.8 1063.4,1244.35C1061.09,1246.91 1059.86,1249.86 1059.72,1253.22L1053.74,1253.22C1054.02,1248.25 1055.91,1244.07 1059.41,1240.68C1062.91,1237.28 1067.81,1235.58 1074.11,1235.58C1076.91,1235.58 1079.55,1235.97 1082.03,1236.74C1084.52,1237.51 1086.69,1238.72 1088.54,1240.36C1090.4,1242.01 1091.87,1244.14 1092.95,1246.77C1094.04,1249.39 1094.58,1252.52 1094.58,1256.16L1094.58,1289.13L1088.91,1289.13L1088.91,1277.48L1088.81,1277.48C1087.48,1281.26 1085.2,1284.32 1081.98,1286.66Z" style="fill:rgb(2,43,85);fill-rule:nonzero;"/>
        <path d="M1110.96,1289.13L1110.96,1236.63L1116.63,1236.63L1116.63,1247.24L1116.84,1247.24C1118.38,1243.39 1120.59,1240.48 1123.46,1238.52C1126.33,1236.57 1129.72,1235.58 1133.64,1235.58C1139.1,1235.58 1143.46,1237.37 1146.71,1240.94C1149.97,1244.51 1151.59,1249.06 1151.59,1254.59L1151.59,1289.13L1145.72,1289.13L1145.72,1257.11C1145.72,1251.51 1144.46,1247.36 1141.94,1244.67C1139.42,1241.97 1135.88,1240.62 1131.33,1240.62C1126.78,1240.62 1123.23,1242.06 1120.67,1244.93C1118.12,1247.8 1116.84,1251.47 1116.84,1255.95L1116.84,1289.13L1110.96,1289.13Z" style="fill:rgb(2,43,85);fill-rule:nonzero;"/>
        <path d="M1200.84,1286.09C1197.27,1288.82 1192.34,1290.18 1186.04,1290.18C1182.61,1290.18 1179.56,1289.66 1176.9,1288.61C1174.24,1287.56 1171.98,1286.14 1170.13,1284.36C1168.27,1282.57 1166.82,1280.51 1165.77,1278.16C1164.72,1275.82 1164.13,1273.35 1163.99,1270.76L1169.97,1270.76C1170.11,1272.58 1170.53,1274.38 1171.23,1276.17C1171.93,1277.95 1172.95,1279.51 1174.28,1280.84C1175.61,1282.17 1177.27,1283.24 1179.26,1284.04C1181.26,1284.85 1183.55,1285.25 1186.14,1285.25C1190.34,1285.25 1193.75,1284.32 1196.38,1282.47C1199,1280.61 1200.32,1278.18 1200.32,1275.17C1200.32,1272.37 1199.27,1270.29 1197.17,1268.92C1195.07,1267.56 1191.78,1266.35 1187.3,1265.3L1181.42,1263.93C1176.59,1262.81 1172.72,1261.2 1169.81,1259.1C1166.91,1257 1165.46,1253.99 1165.46,1250.07C1165.46,1246.08 1167.19,1242.67 1170.65,1239.84C1174.12,1237 1178.58,1235.58 1184.04,1235.58C1189.64,1235.58 1194.4,1237.14 1198.32,1240.26C1202.24,1243.37 1204.38,1247.34 1204.73,1252.17L1198.74,1252.17C1198.39,1248.95 1196.96,1246.21 1194.44,1243.93C1191.92,1241.66 1188.45,1240.52 1184.04,1240.52C1180.54,1240.52 1177.55,1241.31 1175.06,1242.88C1172.58,1244.46 1171.34,1246.71 1171.34,1249.65C1171.34,1252.24 1172.47,1254.1 1174.75,1255.22C1177.02,1256.34 1180.05,1257.35 1183.83,1258.26L1189.82,1259.63C1195.49,1260.96 1199.63,1262.74 1202.26,1264.98C1204.88,1267.22 1206.2,1270.55 1206.2,1274.96C1206.2,1279.65 1204.41,1283.36 1200.84,1286.09Z" style="fill:rgb(2,43,85);fill-rule:nonzero;"/>
        <path d="M1222.47,1289.13L1222.47,1241.57L1211.97,1241.57L1211.97,1236.63L1222.47,1236.63L1222.47,1226.98C1222.47,1223.76 1223.31,1221.24 1224.99,1219.42C1226.67,1217.6 1229.3,1216.69 1232.87,1216.69L1242.11,1216.69L1242.11,1221.62L1234.13,1221.62C1232.1,1221.62 1230.63,1222.09 1229.72,1223.04C1228.81,1223.98 1228.35,1225.54 1228.35,1227.71L1228.35,1236.63L1242.53,1236.63L1242.53,1241.57L1228.35,1241.57L1228.35,1289.13L1222.47,1289.13Z" style="fill:rgb(2,43,85);fill-rule:nonzero;"/>
        <path d="M1254.81,1271.81C1255.65,1274.54 1256.86,1276.9 1258.43,1278.9C1260.01,1280.89 1261.93,1282.45 1264.21,1283.57C1266.48,1284.69 1269.02,1285.25 1271.82,1285.25C1274.62,1285.25 1277.16,1284.69 1279.43,1283.57C1281.71,1282.45 1283.63,1280.89 1285.21,1278.9C1286.78,1276.9 1287.99,1274.54 1288.83,1271.81C1289.67,1269.08 1290.09,1266.1 1290.09,1262.88C1290.09,1259.66 1289.67,1256.69 1288.83,1253.96C1287.99,1251.23 1286.78,1248.87 1285.21,1246.87C1283.63,1244.88 1281.71,1243.32 1279.43,1242.2C1277.16,1241.08 1274.62,1240.52 1271.82,1240.52C1269.02,1240.52 1266.48,1241.08 1264.21,1242.2C1261.93,1243.32 1260.01,1244.88 1258.43,1246.87C1256.86,1248.87 1255.65,1251.23 1254.81,1253.96C1253.97,1256.69 1253.55,1259.66 1253.55,1262.88C1253.55,1266.1 1253.97,1269.08 1254.81,1271.81ZM1294.82,1273.23C1293.7,1276.55 1292.07,1279.46 1289.93,1281.94C1287.8,1284.43 1285.21,1286.42 1282.16,1287.93C1279.12,1289.43 1275.67,1290.18 1271.82,1290.18C1267.97,1290.18 1264.52,1289.43 1261.48,1287.93C1258.43,1286.42 1255.84,1284.43 1253.71,1281.94C1251.58,1279.46 1249.95,1276.55 1248.83,1273.23C1247.71,1269.9 1247.15,1266.45 1247.15,1262.88C1247.15,1259.31 1247.71,1255.87 1248.83,1252.54C1249.95,1249.22 1251.58,1246.31 1253.71,1243.83C1255.84,1241.34 1258.43,1239.35 1261.48,1237.84C1264.52,1236.34 1267.97,1235.58 1271.82,1235.58C1275.67,1235.58 1279.12,1236.34 1282.16,1237.84C1285.21,1239.35 1287.8,1241.34 1289.93,1243.83C1292.07,1246.31 1293.7,1249.22 1294.82,1252.54C1295.94,1255.87 1296.5,1259.31 1296.5,1262.88C1296.5,1266.45 1295.94,1269.9 1294.82,1273.23Z" style="fill:rgb(2,43,85);fill-rule:nonzero;"/>
        <path d="M1310.15,1289.13L1310.15,1236.63L1315.82,1236.63L1315.82,1247.24L1316.03,1247.24C1317.57,1243.32 1319.79,1240.4 1322.69,1238.47C1325.6,1236.55 1329.22,1235.58 1333.56,1235.58L1333.56,1241.88L1332.09,1241.88C1327.19,1241.88 1323.29,1243.18 1320.38,1245.77C1317.48,1248.36 1316.03,1252.38 1316.03,1257.84L1316.03,1289.13L1310.15,1289.13Z" style="fill:rgb(2,43,85);fill-rule:nonzero;"/>
        <path d="M1349.94,1289.13L1344.06,1289.13L1344.06,1236.63L1349.73,1236.63L1349.73,1247.24L1349.94,1247.24C1351.48,1243.39 1353.56,1240.48 1356.19,1238.52C1358.81,1236.57 1362.02,1235.58 1365.8,1235.58C1370.07,1235.58 1373.64,1236.72 1376.5,1239C1379.38,1241.27 1381.33,1244.19 1382.39,1247.76L1382.49,1247.76C1383.96,1243.98 1386.08,1241.01 1388.84,1238.84C1391.61,1236.67 1395.02,1235.58 1399.08,1235.58C1404.54,1235.58 1408.81,1237.37 1411.89,1240.94C1414.97,1244.51 1416.51,1249.06 1416.51,1254.59L1416.51,1289.13L1410.63,1289.13L1410.63,1257.11C1410.63,1251.51 1409.46,1247.36 1407.11,1244.67C1404.77,1241.97 1401.39,1240.62 1396.98,1240.62C1392.57,1240.62 1389.17,1242.06 1386.79,1244.93C1384.42,1247.8 1383.23,1251.47 1383.23,1255.95L1383.23,1289.13L1377.35,1289.13L1377.35,1257.11C1377.35,1251.51 1376.17,1247.36 1373.83,1244.67C1371.48,1241.97 1368.07,1240.62 1363.59,1240.62C1359.18,1240.62 1355.8,1242.06 1353.46,1244.93C1351.11,1247.8 1349.94,1251.47 1349.94,1255.95L1349.94,1289.13Z" style="fill:rgb(2,43,85);fill-rule:nonzero;"/>
        <path d="M1436.36,1279.32C1437.13,1280.61 1438.11,1281.69 1439.3,1282.57C1440.49,1283.44 1441.85,1284.11 1443.39,1284.57C1444.93,1285.02 1446.47,1285.25 1448.01,1285.25C1454.03,1285.25 1458.51,1283.44 1461.45,1279.84C1464.39,1276.24 1465.86,1271.42 1465.86,1265.4L1465.86,1262.04L1453.16,1263.51C1447.91,1264.07 1443.6,1265.11 1440.24,1266.61C1436.88,1268.12 1435.2,1270.83 1435.2,1274.75C1435.2,1276.5 1435.59,1278.02 1436.36,1279.32ZM1459.14,1286.66C1455.92,1289.01 1451.93,1290.18 1447.17,1290.18C1444.72,1290.18 1442.38,1289.85 1440.14,1289.19C1437.9,1288.52 1435.95,1287.52 1434.31,1286.19C1432.66,1284.86 1431.35,1283.2 1430.37,1281.21C1429.39,1279.21 1428.9,1276.88 1428.9,1274.22C1428.9,1271.56 1429.5,1269.32 1430.69,1267.5C1431.88,1265.68 1433.47,1264.21 1435.46,1263.09C1437.46,1261.97 1439.82,1261.1 1442.55,1260.47C1445.28,1259.84 1448.15,1259.35 1451.16,1259L1465.86,1257.42L1465.86,1255.43C1465.86,1251.37 1464.71,1247.87 1462.4,1244.93C1460.08,1241.99 1456.38,1240.52 1451.27,1240.52C1446.44,1240.52 1442.87,1241.8 1440.56,1244.35C1438.25,1246.91 1437.02,1249.86 1436.88,1253.22L1430.9,1253.22C1431.18,1248.25 1433.07,1244.07 1436.57,1240.68C1440.07,1237.28 1444.97,1235.58 1451.27,1235.58C1454.07,1235.58 1456.71,1235.97 1459.19,1236.74C1461.68,1237.51 1463.85,1238.72 1465.7,1240.36C1467.56,1242.01 1469.03,1244.14 1470.11,1246.77C1471.2,1249.39 1471.74,1252.52 1471.74,1256.16L1471.74,1289.13L1466.07,1289.13L1466.07,1277.48L1465.96,1277.48C1464.63,1281.26 1462.36,1284.32 1459.14,1286.66Z" style="fill:rgb(2,43,85);fill-rule:nonzero;"/>
        <path d="M1501.35,1289.13C1497.78,1289.13 1495.16,1288.22 1493.47,1286.4C1491.79,1284.58 1490.96,1282.06 1490.96,1278.84L1490.96,1241.57L1480.56,1241.57L1480.56,1236.63L1490.96,1236.63L1490.96,1224.66L1496.83,1224.66L1496.83,1236.63L1511.11,1236.63L1511.11,1241.57L1496.83,1241.57L1496.83,1278.11C1496.83,1280.28 1497.31,1281.84 1498.25,1282.78C1499.2,1283.73 1500.65,1284.2 1502.61,1284.2L1510.69,1284.2L1510.69,1289.13L1501.35,1289.13Z" style="fill:rgb(2,43,85);fill-rule:nonzero;"/>
        <path d="M1521.51,1289.13L1521.51,1236.63L1527.39,1236.63L1527.39,1289.13L1521.51,1289.13ZM1521.09,1226.87L1521.09,1216.69L1527.91,1216.69L1527.91,1226.87L1521.09,1226.87Z" style="fill:rgb(2,43,85);fill-rule:nonzero;"/>
        <path d="M1548.7,1271.81C1549.54,1274.54 1550.75,1276.9 1552.33,1278.9C1553.9,1280.89 1555.82,1282.45 1558.1,1283.57C1560.37,1284.69 1562.91,1285.25 1565.71,1285.25C1568.51,1285.25 1571.05,1284.69 1573.32,1283.57C1575.6,1282.45 1577.52,1280.89 1579.1,1278.9C1580.67,1276.9 1581.88,1274.54 1582.72,1271.81C1583.56,1269.08 1583.98,1266.1 1583.98,1262.88C1583.98,1259.66 1583.56,1256.69 1582.72,1253.96C1581.88,1251.23 1580.67,1248.87 1579.1,1246.87C1577.52,1244.88 1575.6,1243.32 1573.32,1242.2C1571.05,1241.08 1568.51,1240.52 1565.71,1240.52C1562.91,1240.52 1560.37,1241.08 1558.1,1242.2C1555.82,1243.32 1553.9,1244.88 1552.33,1246.87C1550.75,1248.87 1549.54,1251.23 1548.7,1253.96C1547.86,1256.69 1547.44,1259.66 1547.44,1262.88C1547.44,1266.1 1547.86,1269.08 1548.7,1271.81ZM1588.71,1273.23C1587.59,1276.55 1585.96,1279.46 1583.82,1281.94C1581.69,1284.43 1579.1,1286.42 1576.05,1287.93C1573.01,1289.43 1569.56,1290.18 1565.71,1290.18C1561.86,1290.18 1558.41,1289.43 1555.37,1287.93C1552.33,1286.42 1549.74,1284.43 1547.6,1281.94C1545.46,1279.46 1543.84,1276.55 1542.72,1273.23C1541.6,1269.9 1541.04,1266.45 1541.04,1262.88C1541.04,1259.31 1541.6,1255.87 1542.72,1252.54C1543.84,1249.22 1545.46,1246.31 1547.6,1243.83C1549.74,1241.34 1552.33,1239.35 1555.37,1237.84C1558.41,1236.34 1561.86,1235.58 1565.71,1235.58C1569.56,1235.58 1573.01,1236.34 1576.05,1237.84C1579.1,1239.35 1581.69,1241.34 1583.82,1243.83C1585.96,1246.31 1587.59,1249.22 1588.71,1252.54C1589.83,1255.87 1590.39,1259.31 1590.39,1262.88C1590.39,1266.45 1589.83,1269.9 1588.71,1273.23Z" style="fill:rgb(2,43,85);fill-rule:nonzero;"/>
        <path d="M1604.04,1289.13L1604.04,1236.63L1609.71,1236.63L1609.71,1247.24L1609.92,1247.24C1611.46,1243.39 1613.66,1240.48 1616.53,1238.52C1619.4,1236.57 1622.8,1235.58 1626.72,1235.58C1632.18,1235.58 1636.53,1237.37 1639.79,1240.94C1643.04,1244.51 1644.67,1249.06 1644.67,1254.59L1644.67,1289.13L1638.79,1289.13L1638.79,1257.11C1638.79,1251.51 1637.53,1247.36 1635.01,1244.67C1632.49,1241.97 1628.96,1240.62 1624.41,1240.62C1619.86,1240.62 1616.3,1242.06 1613.75,1244.93C1611.19,1247.8 1609.92,1251.47 1609.92,1255.95L1609.92,1289.13L1604.04,1289.13Z" style="fill:rgb(2,43,85);fill-rule:nonzero;"/>
    </g>
</svg>
