<?xml version="1.0" encoding="UTF-8" standalone="no"?>
<!DOCTYPE svg PUBLIC "-//W3C//DTD SVG 1.1//EN" "http://www.w3.org/Graphics/SVG/1.1/DTD/svg11.dtd">
<svg width="100%" height="100%" viewBox="0 0 21555 5817" version="1.1" xmlns="http://www.w3.org/2000/svg" xmlns:xlink="http://www.w3.org/1999/xlink" xml:space="preserve" xmlns:serif="http://www.serif.com/" style="fill-rule:evenodd;clip-rule:evenodd;stroke-linejoin:round;stroke-miterlimit:2;">
    <g transform="matrix(5.23877,0,0,5.23877,-1641.88,-846.203)">
        <rect x="980.321" y="459.793" width="62.518" height="80.134" style="fill:rgb(2,43,85);fill-rule:nonzero;"/>
        <path d="M1765.98,589.497L1666.86,589.497L1666.86,459.757L1604.35,459.757L1604.35,589.497L1543.34,589.497L1543.34,636.049L1604.35,636.049L1604.35,849.545C1604.35,884.1 1632.34,912.114 1666.86,912.114L1666.86,636.049L1765.98,636.049L1765.98,589.497Z" style="fill:rgb(2,43,85);fill-rule:nonzero;"/>
        <path d="M682.381,923.034C606.128,923.034 561.138,867.324 561.138,778.029C561.138,688.741 606.128,633.031 682.381,633.031C758.624,633.031 803.613,687.217 803.613,778.029C803.613,869.613 758.624,923.034 682.381,923.034ZM706.783,581.896C619.856,581.896 568.001,630.738 568.001,713.16L566.481,713.16L566.481,419.166L503.953,419.166L503.953,967.297L566.481,967.297L566.481,842.901L568.001,842.901C568.001,925.323 619.856,974.92 706.783,974.92C807.424,974.92 867.661,901.659 867.661,778.029C867.661,655.16 807.424,581.896 706.783,581.896Z" style="fill:rgb(2,43,85);fill-rule:nonzero;"/>
        <path d="M917.807,589.274L897.445,589.274L897.445,651.843L980.321,651.843C980.321,617.288 952.335,589.274 917.807,589.274Z" style="fill:rgb(2,43,85);fill-rule:nonzero;"/>
        <path d="M1666.86,912.115C1666.86,946.67 1694.85,974.683 1729.38,974.683L1765.99,974.683L1765.99,912.115L1666.86,912.115Z" style="fill:rgb(2,43,85);fill-rule:nonzero;"/>
        <path d="M1297.54,923.034C1221.29,923.034 1177.07,869.613 1177.07,778.029C1177.07,687.217 1221.29,633.031 1297.54,633.031C1374.55,633.031 1418.78,688.741 1418.78,778.029C1418.78,867.324 1374.55,923.034 1297.54,923.034ZM1414.2,713.16L1412.68,713.16C1412.68,630.738 1360.07,581.896 1273.14,581.896C1172.49,581.896 1113.02,655.16 1113.02,778.029C1113.02,901.659 1172.49,974.92 1273.14,974.92C1360.07,974.92 1412.68,925.323 1412.68,842.901L1414.2,842.901L1414.2,967.297L1476.73,967.297L1476.73,419.166L1414.2,419.166L1414.2,713.16Z" style="fill:rgb(2,43,85);fill-rule:nonzero;"/>
        <path d="M980.321,651.842L980.321,904.726C980.321,939.281 1008.31,967.295 1042.84,967.295L1042.84,714.411C1042.84,679.856 1014.85,651.842 980.321,651.842Z" style="fill:rgb(2,43,85);fill-rule:nonzero;"/>
        <path d="M1915.94,660.538L1915.94,716.374L1947.42,716.374C1959.43,716.374 1968.74,714.394 1975.34,710.434C1981.94,706.474 1985.24,699.147 1985.24,688.456C1985.24,677.765 1981.64,670.438 1974.45,666.479C1967.25,662.519 1957.25,660.538 1944.45,660.538L1915.94,660.538ZM1915.94,599.951L1915.94,650.44L1941.08,650.44C1953.23,650.44 1962.57,648.625 1969.1,644.995C1975.63,641.365 1978.9,634.667 1978.9,624.898C1978.9,615.263 1975.83,608.696 1969.69,605.198C1963.56,601.7 1954.28,599.951 1941.87,599.951L1915.94,599.951ZM1983.95,644.995C1979,650.077 1972.96,653.477 1965.83,655.192L1965.83,655.391C1976.13,656.314 1984.01,659.647 1989.49,665.39C1994.97,671.131 1997.71,678.82 1997.71,688.456C1997.71,702.184 1993.25,711.952 1984.34,717.76C1975.43,723.567 1963.39,726.472 1948.21,726.472L1904.25,726.472L1904.25,589.853L1941.87,589.853C1956.79,589.853 1968.77,592.394 1977.81,597.476C1986.85,602.558 1991.37,611.699 1991.37,624.898C1991.37,633.215 1988.9,639.913 1983.95,644.995Z" style="fill:rgb(2,43,85);fill-rule:nonzero;"/>
        <path d="M2031.17,707.959C2032.62,710.4 2034.47,712.447 2036.71,714.097C2038.96,715.747 2041.53,717.001 2044.44,717.858C2047.34,718.717 2050.25,719.146 2053.15,719.146C2064.5,719.146 2072.95,715.747 2078.49,708.949C2084.04,702.151 2086.81,693.076 2086.81,681.724L2086.81,675.388L2062.85,678.16C2052.95,679.216 2044.83,681.163 2038.5,684.001C2032.16,686.839 2028.99,691.954 2028.99,699.346C2028.99,702.646 2029.72,705.517 2031.17,707.959ZM2074.14,721.818C2068.06,726.24 2060.54,728.452 2051.56,728.452C2046.94,728.452 2042.52,727.824 2038.3,726.57C2034.08,725.316 2030.41,723.436 2027.31,720.928C2024.21,718.42 2021.73,715.285 2019.88,711.522C2018.04,707.761 2017.11,703.372 2017.11,698.356C2017.11,693.34 2018.24,689.116 2020.48,685.685C2022.72,682.252 2025.73,679.48 2029.49,677.368C2033.25,675.256 2037.71,673.606 2042.85,672.418C2048,671.23 2053.41,670.307 2059.09,669.647L2086.81,666.677L2086.81,662.914C2086.81,655.259 2084.63,648.658 2080.27,643.114C2075.92,637.57 2068.92,634.799 2059.29,634.799C2050.18,634.799 2043.45,637.208 2039.09,642.025C2034.74,646.844 2032.42,652.421 2032.16,658.757L2020.88,658.757C2021.4,649.385 2024.97,641.497 2031.57,635.096C2038.17,628.693 2047.41,625.493 2059.29,625.493C2064.57,625.493 2069.55,626.219 2074.24,627.671C2078.92,629.123 2083.01,631.399 2086.51,634.502C2090.01,637.604 2092.78,641.63 2094.83,646.579C2096.87,651.529 2097.9,657.437 2097.9,664.3L2097.9,726.472L2087.2,726.472L2087.2,704.494L2087.01,704.494C2084.5,711.622 2080.21,717.397 2074.14,721.818Z" style="fill:rgb(2,43,85);fill-rule:nonzero;"/>
        <path d="M2127.2,627.473L2160.46,725.878L2193.73,627.473L2205.41,627.473L2171.75,726.472L2149.18,726.472L2115.52,627.473L2127.2,627.473Z" style="fill:rgb(2,43,85);fill-rule:nonzero;"/>
        <path d="M2230.16,707.959C2231.61,710.4 2233.46,712.447 2235.71,714.097C2237.95,715.747 2240.52,717.001 2243.43,717.858C2246.33,718.717 2249.24,719.146 2252.14,719.146C2263.49,719.146 2271.94,715.747 2277.48,708.949C2283.03,702.151 2285.8,693.076 2285.8,681.724L2285.8,675.388L2261.84,678.16C2251.94,679.216 2243.82,681.163 2237.49,684.001C2231.15,686.839 2227.98,691.954 2227.98,699.346C2227.98,702.646 2228.71,705.517 2230.16,707.959ZM2273.13,721.818C2267.06,726.24 2259.53,728.452 2250.56,728.452C2245.94,728.452 2241.51,727.824 2237.29,726.57C2233.07,725.316 2229.4,723.436 2226.3,720.928C2223.2,718.42 2220.72,715.285 2218.88,711.522C2217.03,707.761 2216.1,703.372 2216.1,698.356C2216.1,693.34 2217.23,689.116 2219.47,685.685C2221.71,682.252 2224.72,679.48 2228.48,677.368C2232.24,675.256 2236.7,673.606 2241.84,672.418C2246.99,671.23 2252.4,670.307 2258.08,669.647L2285.8,666.677L2285.8,662.914C2285.8,655.259 2283.62,648.658 2279.27,643.114C2274.91,637.57 2267.91,634.799 2258.28,634.799C2249.17,634.799 2242.44,637.208 2238.08,642.025C2233.73,646.844 2231.42,652.421 2231.15,658.757L2219.87,658.757C2220.39,649.385 2223.96,641.497 2230.56,635.096C2237.16,628.693 2246.4,625.493 2258.28,625.493C2263.56,625.493 2268.54,626.219 2273.23,627.671C2277.91,629.123 2282,631.399 2285.5,634.502C2289,637.604 2291.77,641.63 2293.82,646.579C2295.86,651.529 2296.89,657.437 2296.89,664.3L2296.89,726.472L2286.2,726.472L2286.2,704.494L2286,704.494C2283.49,711.622 2279.2,717.397 2273.13,721.818Z" style="fill:rgb(2,43,85);fill-rule:nonzero;"/>
        <path d="M2327.77,726.472L2327.77,627.473L2338.46,627.473L2338.46,647.471L2338.86,647.471C2341.76,640.078 2345.96,634.567 2351.43,630.938C2356.91,627.308 2363.74,625.493 2371.93,625.493L2371.93,637.372L2369.16,637.372C2359.92,637.372 2352.56,639.814 2347.08,644.698C2341.6,649.582 2338.86,657.173 2338.86,667.468L2338.86,726.472L2327.77,726.472Z" style="fill:rgb(2,43,85);fill-rule:nonzero;"/>
        <path d="M2391.73,726.472L2391.73,627.473L2402.81,627.473L2402.81,726.472L2391.73,726.472ZM2390.93,609.059L2390.93,589.853L2403.8,589.853L2403.8,609.059L2390.93,609.059Z" style="fill:rgb(2,43,85);fill-rule:nonzero;"/>
        <path d="M2441.42,707.959C2442.87,710.4 2444.72,712.447 2446.97,714.097C2449.21,715.747 2451.78,717.001 2454.69,717.858C2457.59,718.717 2460.5,719.146 2463.4,719.146C2474.75,719.146 2483.2,715.747 2488.74,708.949C2494.29,702.151 2497.06,693.076 2497.06,681.724L2497.06,675.388L2473.1,678.16C2463.2,679.216 2455.08,681.163 2448.75,684.001C2442.41,686.839 2439.24,691.954 2439.24,699.346C2439.24,702.646 2439.97,705.517 2441.42,707.959ZM2484.39,721.818C2478.32,726.24 2470.79,728.452 2461.82,728.452C2457.2,728.452 2452.77,727.824 2448.55,726.57C2444.33,725.316 2440.66,723.436 2437.56,720.928C2434.46,718.42 2431.98,715.285 2430.14,711.522C2428.29,707.761 2427.36,703.372 2427.36,698.356C2427.36,693.34 2428.49,689.116 2430.73,685.685C2432.97,682.252 2435.98,679.48 2439.74,677.368C2443.5,675.256 2447.96,673.606 2453.1,672.418C2458.25,671.23 2463.66,670.307 2469.34,669.647L2497.06,666.677L2497.06,662.914C2497.06,655.259 2494.88,648.658 2490.53,643.114C2486.17,637.57 2479.17,634.799 2469.54,634.799C2460.43,634.799 2453.7,637.208 2449.34,642.025C2444.99,646.844 2442.68,652.421 2442.41,658.757L2431.13,658.757C2431.65,649.385 2435.22,641.497 2441.82,635.096C2448.42,628.693 2457.66,625.493 2469.54,625.493C2474.82,625.493 2479.8,626.219 2484.49,627.671C2489.17,629.123 2493.26,631.399 2496.76,634.502C2500.26,637.604 2503.03,641.63 2505.08,646.579C2507.12,651.529 2508.15,657.437 2508.15,664.3L2508.15,726.472L2497.46,726.472L2497.46,704.494L2497.26,704.494C2494.75,711.622 2490.46,717.397 2484.39,721.818Z" style="fill:rgb(2,43,85);fill-rule:nonzero;"/>
        <path d="M2539.03,726.472L2539.03,627.473L2549.73,627.473L2549.73,647.471L2550.12,647.471C2553.03,640.211 2557.18,634.732 2562.59,631.036C2568.01,627.341 2574.41,625.493 2581.8,625.493C2592.1,625.493 2600.31,628.858 2606.45,635.591C2612.59,642.322 2615.66,650.902 2615.66,661.33L2615.66,726.472L2604.57,726.472L2604.57,666.082C2604.57,655.522 2602.19,647.701 2597.44,642.619C2592.69,637.537 2586.02,634.997 2577.45,634.997C2568.87,634.997 2562.17,637.702 2557.35,643.114C2552.53,648.526 2550.12,655.456 2550.12,663.904L2550.12,726.472L2539.03,726.472Z" style="fill:rgb(2,43,85);fill-rule:nonzero;"/>
        <path d="M2712.68,599.951L2712.68,656.776L2743.57,656.776C2754.65,656.776 2763.73,654.599 2770.79,650.242C2777.85,645.887 2781.38,638.561 2781.38,628.265C2781.38,617.837 2777.85,610.511 2770.79,606.287C2763.73,602.063 2754.65,599.951 2743.57,599.951L2712.68,599.951ZM2701,589.853L2742.58,589.853C2758.55,589.853 2771.09,593.087 2780.19,599.555C2789.3,606.022 2793.86,615.593 2793.86,628.265C2793.86,638.297 2790.95,646.414 2785.14,652.618C2779.34,658.822 2771.15,662.98 2760.59,665.093L2796.43,726.472L2782.97,726.472L2748.32,666.479C2747.39,666.61 2746.44,666.677 2745.45,666.677L2712.68,666.677L2712.68,726.472L2701,726.472L2701,589.853Z" style="fill:rgb(2,43,85);fill-rule:nonzero;"/>
        <path d="M2834.94,644.897C2829.07,651.628 2825.74,660.274 2824.94,670.834L2890.48,670.834C2889.95,660.538 2886.79,651.958 2880.98,645.095C2875.17,638.23 2867.45,634.799 2857.81,634.799C2848.44,634.799 2840.82,638.165 2834.94,644.897ZM2895.83,707.959C2893.85,711.984 2891.17,715.516 2887.81,718.552C2884.44,721.588 2880.32,723.997 2875.43,725.778C2870.55,727.561 2864.87,728.452 2858.41,728.452C2851.41,728.452 2845.11,727.032 2839.5,724.194C2833.89,721.356 2829.2,717.595 2825.44,712.909C2821.68,708.223 2818.77,702.745 2816.73,696.475C2814.68,690.205 2813.66,683.704 2813.66,676.972C2813.66,670.24 2814.65,663.739 2816.63,657.47C2818.61,651.199 2821.51,645.722 2825.34,641.035C2829.17,636.35 2833.82,632.588 2839.3,629.75C2844.78,626.912 2850.95,625.493 2857.81,625.493C2864.81,625.493 2871.14,626.912 2876.82,629.75C2882.5,632.588 2887.21,636.481 2890.98,641.432C2894.74,646.382 2897.58,652.189 2899.49,658.855C2901.4,665.522 2902.1,672.616 2901.57,680.14L2824.94,680.14C2825.08,685.552 2825.97,690.667 2827.62,695.485C2829.27,700.303 2831.54,704.461 2834.45,707.959C2837.35,711.457 2840.95,714.196 2845.24,716.176C2849.53,718.155 2854.38,719.146 2859.79,719.146C2864.68,719.146 2868.83,718.42 2872.27,716.968C2875.7,715.516 2878.54,713.635 2880.78,711.325C2883.02,709.015 2884.81,706.44 2886.13,703.603C2887.45,700.765 2888.37,697.96 2888.9,695.188L2899.99,695.188C2899.19,699.676 2897.81,703.933 2895.83,707.959Z" style="fill:rgb(2,43,85);fill-rule:nonzero;"/>
        <path d="M2989.08,720.73C2982.35,725.878 2973.04,728.452 2961.17,728.452C2954.7,728.452 2948.96,727.462 2943.94,725.481C2938.92,723.502 2934.67,720.829 2931.17,717.463C2927.67,714.097 2924.93,710.203 2922.95,705.781C2920.97,701.359 2919.85,696.706 2919.58,691.822L2930.87,691.822C2931.13,695.254 2931.93,698.653 2933.25,702.019C2934.57,705.385 2936.48,708.322 2938.99,710.83C2941.5,713.338 2944.63,715.351 2948.39,716.869C2952.16,718.387 2956.48,719.146 2961.36,719.146C2969.28,719.146 2975.72,717.397 2980.67,713.898C2985.62,710.4 2988.09,705.813 2988.09,700.138C2988.09,694.858 2986.11,690.931 2982.15,688.357C2978.19,685.783 2971.99,683.506 2963.54,681.526L2952.45,678.952C2943.34,676.84 2936.05,673.804 2930.57,669.845C2925.1,665.884 2922.36,660.208 2922.36,652.816C2922.36,645.292 2925.62,638.857 2932.16,633.512C2938.69,628.166 2947.11,625.493 2957.4,625.493C2967.96,625.493 2976.94,628.43 2984.33,634.304C2991.72,640.178 2995.75,647.669 2996.41,656.776L2985.12,656.776C2984.46,650.704 2981.76,645.523 2977,641.233C2972.25,636.943 2965.72,634.799 2957.4,634.799C2950.8,634.799 2945.16,636.283 2940.47,639.254C2935.79,642.224 2933.45,646.48 2933.45,652.024C2933.45,656.908 2935.59,660.406 2939.88,662.519C2944.17,664.63 2949.88,666.544 2957.01,668.261L2968.29,670.834C2978.98,673.342 2986.81,676.708 2991.75,680.933C2996.71,685.156 2999.18,691.426 2999.18,699.742C2999.18,708.586 2995.81,715.582 2989.08,720.73Z" style="fill:rgb(2,43,85);fill-rule:nonzero;"/>
        <path d="M3039.08,644.897C3033.2,651.628 3029.87,660.274 3029.08,670.834L3094.61,670.834C3094.09,660.538 3090.92,651.958 3085.11,645.095C3079.3,638.23 3071.58,634.799 3061.94,634.799C3052.57,634.799 3044.95,638.165 3039.08,644.897ZM3099.96,707.959C3097.98,711.984 3095.31,715.516 3091.94,718.552C3088.58,721.588 3084.45,723.997 3079.57,725.778C3074.68,727.561 3069.01,728.452 3062.54,728.452C3055.54,728.452 3049.24,727.032 3043.63,724.194C3038.02,721.356 3033.33,717.595 3029.57,712.909C3025.81,708.223 3022.91,702.745 3020.86,696.475C3018.81,690.205 3017.79,683.704 3017.79,676.972C3017.79,670.24 3018.78,663.739 3020.76,657.47C3022.74,651.199 3025.65,645.722 3029.47,641.035C3033.3,636.35 3037.95,632.588 3043.43,629.75C3048.91,626.912 3055.08,625.493 3061.94,625.493C3068.94,625.493 3075.28,626.912 3080.95,629.75C3086.63,632.588 3091.35,636.481 3095.11,641.432C3098.87,646.382 3101.71,652.189 3103.62,658.855C3105.54,665.522 3106.23,672.616 3105.7,680.14L3029.08,680.14C3029.21,685.552 3030.1,690.667 3031.75,695.485C3033.4,700.303 3035.68,704.461 3038.58,707.959C3041.49,711.457 3045.08,714.196 3049.37,716.176C3053.66,718.155 3058.51,719.146 3063.92,719.146C3068.81,719.146 3072.97,718.42 3076.4,716.968C3079.83,715.516 3082.67,713.635 3084.91,711.325C3087.16,709.015 3088.94,706.44 3090.26,703.603C3091.58,700.765 3092.5,697.96 3093.03,695.188L3104.12,695.188C3103.33,699.676 3101.94,703.933 3099.96,707.959Z" style="fill:rgb(2,43,85);fill-rule:nonzero;"/>
        <path d="M3137.78,707.959C3139.23,710.4 3141.08,712.447 3143.32,714.097C3145.56,715.747 3148.14,717.001 3151.04,717.858C3153.95,718.717 3156.85,719.146 3159.75,719.146C3171.11,719.146 3179.55,715.747 3185.1,708.949C3190.64,702.151 3193.41,693.076 3193.41,681.724L3193.41,675.388L3169.46,678.16C3159.56,679.216 3151.44,681.163 3145.1,684.001C3138.77,686.839 3135.6,691.954 3135.6,699.346C3135.6,702.646 3136.32,705.517 3137.78,707.959ZM3180.74,721.818C3174.67,726.24 3167.15,728.452 3158.17,728.452C3153.55,728.452 3149.13,727.824 3144.9,726.57C3140.68,725.316 3137.02,723.436 3133.92,720.928C3130.81,718.42 3128.34,715.285 3126.49,711.522C3124.64,707.761 3123.72,703.372 3123.72,698.356C3123.72,693.34 3124.84,689.116 3127.08,685.685C3129.33,682.252 3132.33,679.48 3136.09,677.368C3139.85,675.256 3144.31,673.606 3149.46,672.418C3154.61,671.23 3160.02,670.307 3165.69,669.647L3193.41,666.677L3193.41,662.914C3193.41,655.259 3191.24,648.658 3186.88,643.114C3182.52,637.57 3175.53,634.799 3165.89,634.799C3156.78,634.799 3150.05,637.208 3145.7,642.025C3141.34,646.844 3139.03,652.421 3138.77,658.757L3127.48,658.757C3128.01,649.385 3131.57,641.497 3138.17,635.096C3144.77,628.693 3154.01,625.493 3165.89,625.493C3171.17,625.493 3176.15,626.219 3180.84,627.671C3185.53,629.123 3189.62,631.399 3193.12,634.502C3196.61,637.604 3199.39,641.63 3201.43,646.579C3203.48,651.529 3204.5,657.437 3204.5,664.3L3204.5,726.472L3193.81,726.472L3193.81,704.494L3193.61,704.494C3191.1,711.622 3186.81,717.397 3180.74,721.818Z" style="fill:rgb(2,43,85);fill-rule:nonzero;"/>
        <path d="M3235.39,726.472L3235.39,627.473L3246.08,627.473L3246.08,647.471L3246.48,647.471C3249.38,640.078 3253.57,634.567 3259.05,630.938C3264.53,627.308 3271.36,625.493 3279.54,625.493L3279.54,637.372L3276.77,637.372C3267.53,637.372 3260.17,639.814 3254.69,644.698C3249.21,649.582 3246.48,657.173 3246.48,667.468L3246.48,726.472L3235.39,726.472Z" style="fill:rgb(2,43,85);fill-rule:nonzero;"/>
        <path d="M3362.6,718.75C3355.28,725.218 3345.74,728.452 3333.99,728.452C3326.86,728.452 3320.43,727.065 3314.69,724.294C3308.94,721.522 3304.06,717.793 3300.04,713.106C3296.01,708.421 3292.94,702.943 3290.83,696.673C3288.72,690.403 3287.66,683.836 3287.66,676.972C3287.66,670.24 3288.68,663.739 3290.73,657.47C3292.77,651.199 3295.75,645.722 3299.64,641.035C3303.53,636.35 3308.29,632.588 3313.9,629.75C3319.5,626.912 3325.87,625.493 3333,625.493C3344.75,625.493 3354.25,628.628 3361.51,634.897C3368.77,641.168 3373.39,649.715 3375.37,660.538L3364.09,660.538C3362.5,651.958 3358.97,645.523 3353.5,641.233C3348.02,636.943 3341.32,634.799 3333.4,634.799C3328.12,634.799 3323.37,635.888 3319.14,638.065C3314.92,640.243 3311.39,643.214 3308.55,646.976C3305.71,650.737 3303.53,655.192 3302.01,660.341C3300.5,665.488 3299.74,671.032 3299.74,676.972C3299.74,683.044 3300.53,688.654 3302.11,693.802C3303.7,698.95 3305.98,703.405 3308.94,707.167C3311.92,710.929 3315.58,713.866 3319.93,715.978C3324.29,718.09 3329.17,719.146 3334.59,719.146C3342.51,719.146 3349.2,716.901 3354.68,712.414C3360.16,707.926 3363.63,701.458 3365.08,693.01L3376.36,693.01C3374.51,703.702 3369.93,712.282 3362.6,718.75Z" style="fill:rgb(2,43,85);fill-rule:nonzero;"/>
        <path d="M3400.12,726.472L3400.12,589.853L3410.82,589.853L3410.82,647.471L3411.21,647.471C3414.12,640.211 3418.27,634.732 3423.68,631.036C3429.1,627.341 3435.5,625.493 3442.89,625.493C3453.19,625.493 3461.4,628.858 3467.54,635.591C3473.68,642.322 3476.75,650.902 3476.75,661.33L3476.75,726.472L3465.66,726.472L3465.66,666.082C3465.66,655.522 3463.28,647.701 3458.53,642.619C3453.78,637.537 3447.11,634.997 3438.54,634.997C3429.96,634.997 3423.26,637.702 3418.44,643.114C3413.62,648.526 3411.21,655.456 3411.21,663.904L3411.21,726.472L3400.12,726.472Z" style="fill:rgb(2,43,85);fill-rule:nonzero;"/>
        <rect x="3562.08" y="589.853" width="11.69" height="136.619" style="fill:rgb(2,43,85);fill-rule:nonzero;"/>
        <path d="M3609.8,726.472L3609.8,627.473L3620.49,627.473L3620.49,647.471L3620.89,647.471C3623.79,640.211 3627.95,634.732 3633.36,631.036C3638.77,627.341 3645.18,625.493 3652.57,625.493C3662.86,625.493 3671.08,628.858 3677.22,635.591C3683.36,642.322 3686.42,650.902 3686.42,661.33L3686.42,726.472L3675.34,726.472L3675.34,666.082C3675.34,655.522 3672.96,647.701 3668.21,642.619C3663.46,637.537 3656.79,634.997 3648.21,634.997C3639.63,634.997 3632.93,637.702 3628.11,643.114C3623.3,648.526 3620.89,655.456 3620.89,663.904L3620.89,726.472L3609.8,726.472Z" style="fill:rgb(2,43,85);fill-rule:nonzero;"/>
        <path d="M3779.29,720.73C3772.56,725.878 3763.25,728.452 3751.37,728.452C3744.9,728.452 3739.16,727.462 3734.14,725.481C3729.13,723.502 3724.87,720.829 3721.37,717.463C3717.87,714.097 3715.14,710.203 3713.16,705.781C3711.18,701.359 3710.05,696.706 3709.79,691.822L3721.08,691.822C3721.34,695.254 3722.13,698.653 3723.45,702.019C3724.77,705.385 3726.69,708.322 3729.19,710.83C3731.7,713.338 3734.84,715.351 3738.6,716.869C3742.36,718.387 3746.68,719.146 3751.57,719.146C3759.49,719.146 3765.92,717.397 3770.87,713.898C3775.82,710.4 3778.3,705.813 3778.3,700.138C3778.3,694.858 3776.32,690.931 3772.36,688.357C3768.4,685.783 3762.19,683.506 3753.75,681.526L3742.66,678.952C3733.55,676.84 3726.26,673.804 3720.78,669.845C3715.3,665.884 3712.56,660.208 3712.56,652.816C3712.56,645.292 3715.83,638.857 3722.36,633.512C3728.9,628.166 3737.31,625.493 3747.61,625.493C3758.17,625.493 3767.14,628.43 3774.54,634.304C3781.93,640.178 3785.95,647.669 3786.61,656.776L3775.33,656.776C3774.67,650.704 3771.96,645.523 3767.21,641.233C3762.46,636.943 3755.92,634.799 3747.61,634.799C3741.01,634.799 3735.36,636.283 3730.68,639.254C3725.99,642.224 3723.65,646.48 3723.65,652.024C3723.65,656.908 3725.79,660.406 3730.08,662.519C3734.37,664.63 3740.08,666.544 3747.21,668.261L3758.5,670.834C3769.19,673.342 3777.01,676.708 3781.96,680.933C3786.91,685.156 3789.38,691.426 3789.38,699.742C3789.38,708.586 3786.02,715.582 3779.29,720.73Z" style="fill:rgb(2,43,85);fill-rule:nonzero;"/>
        <path d="M3839.28,726.472C3832.55,726.472 3827.6,724.756 3824.43,721.323C3821.26,717.892 3819.68,713.14 3819.68,707.067L3819.68,636.778L3800.08,636.778L3800.08,627.473L3819.68,627.473L3819.68,604.901L3830.77,604.901L3830.77,627.473L3857.69,627.473L3857.69,636.778L3830.77,636.778L3830.77,705.682C3830.77,709.773 3831.66,712.711 3833.44,714.493C3835.22,716.274 3837.96,717.166 3841.66,717.166L3856.9,717.166L3856.9,726.472L3839.28,726.472Z" style="fill:rgb(2,43,85);fill-rule:nonzero;"/>
        <path d="M3877.29,726.472L3877.29,627.473L3888.38,627.473L3888.38,726.472L3877.29,726.472ZM3876.5,609.059L3876.5,589.853L3889.37,589.853L3889.37,609.059L3876.5,609.059Z" style="fill:rgb(2,43,85);fill-rule:nonzero;"/>
        <path d="M3947.38,726.472C3940.65,726.472 3935.7,724.756 3932.53,721.323C3929.37,717.892 3927.78,713.14 3927.78,707.067L3927.78,636.778L3908.18,636.778L3908.18,627.473L3927.78,627.473L3927.78,604.901L3938.87,604.901L3938.87,627.473L3965.8,627.473L3965.8,636.778L3938.87,636.778L3938.87,705.682C3938.87,709.773 3939.76,712.711 3941.54,714.493C3943.33,716.274 3946.06,717.166 3949.76,717.166L3965,717.166L3965,726.472L3947.38,726.472Z" style="fill:rgb(2,43,85);fill-rule:nonzero;"/>
        <path d="M4036.78,722.907C4031.7,726.604 4025.59,728.452 4018.46,728.452C4007.9,728.452 3999.55,725.086 3993.42,718.354C3987.28,711.622 3984.21,703.042 3984.21,692.614L3984.21,627.473L3995.3,627.473L3995.3,687.862C3995.3,698.422 3997.67,706.243 4002.42,711.325C4007.18,716.407 4013.78,718.948 4022.22,718.948C4030.94,718.948 4037.54,716.242 4042.02,710.83C4046.51,705.418 4048.76,698.488 4048.76,690.04L4048.76,627.473L4059.84,627.473L4059.84,726.472L4049.15,726.472L4049.15,706.474L4048.76,706.474C4045.85,713.733 4041.86,719.212 4036.78,722.907Z" style="fill:rgb(2,43,85);fill-rule:nonzero;"/>
        <path d="M4118.85,726.472C4112.12,726.472 4107.17,724.756 4104,721.323C4100.83,717.892 4099.25,713.14 4099.25,707.067L4099.25,636.778L4079.64,636.778L4079.64,627.473L4099.25,627.473L4099.25,604.901L4110.33,604.901L4110.33,627.473L4137.26,627.473L4137.26,636.778L4110.33,636.778L4110.33,705.682C4110.33,709.773 4111.23,712.711 4113.01,714.493C4114.79,716.274 4117.53,717.166 4121.22,717.166L4136.47,717.166L4136.47,726.472L4118.85,726.472Z" style="fill:rgb(2,43,85);fill-rule:nonzero;"/>
        <path d="M4170.43,644.897C4164.55,651.628 4161.22,660.274 4160.43,670.834L4225.96,670.834C4225.44,660.538 4222.27,651.958 4216.46,645.095C4210.65,638.23 4202.93,634.799 4193.3,634.799C4183.92,634.799 4176.3,638.165 4170.43,644.897ZM4231.31,707.959C4229.33,711.984 4226.66,715.516 4223.29,718.552C4219.93,721.588 4215.8,723.997 4210.92,725.778C4206.03,727.561 4200.36,728.452 4193.89,728.452C4186.89,728.452 4180.59,727.032 4174.98,724.194C4169.37,721.356 4164.68,717.595 4160.92,712.909C4157.16,708.223 4154.26,702.745 4152.21,696.475C4150.17,690.205 4149.14,683.704 4149.14,676.972C4149.14,670.24 4150.13,663.739 4152.11,657.47C4154.09,651.199 4157,645.722 4160.82,641.035C4164.65,636.35 4169.3,632.588 4174.78,629.75C4180.26,626.912 4186.43,625.493 4193.3,625.493C4200.29,625.493 4206.63,626.912 4212.3,629.75C4217.98,632.588 4222.7,636.481 4226.46,641.432C4230.22,646.382 4233.06,652.189 4234.97,658.855C4236.89,665.522 4237.58,672.616 4237.05,680.14L4160.43,680.14C4160.56,685.552 4161.45,690.667 4163.1,695.485C4164.75,700.303 4167.03,704.461 4169.93,707.959C4172.83,711.457 4176.43,714.196 4180.72,716.176C4185.01,718.155 4189.86,719.146 4195.28,719.146C4200.16,719.146 4204.32,718.42 4207.75,716.968C4211.18,715.516 4214.02,713.635 4216.26,711.325C4218.51,709.015 4220.29,706.44 4221.61,703.603C4222.93,700.765 4223.85,697.96 4224.38,695.188L4235.47,695.188C4234.68,699.676 4233.29,703.933 4231.31,707.959Z" style="fill:rgb(2,43,85);fill-rule:nonzero;"/>
        <path d="M1907.82,978.562L1907.82,888.868L1888.02,888.868L1888.02,879.563L1907.82,879.563L1907.82,861.347C1907.82,855.274 1909.4,850.522 1912.57,847.091C1915.74,843.659 1920.69,841.942 1927.42,841.942L1944.84,841.942L1944.84,851.249L1929.8,851.249C1925.97,851.249 1923.2,852.14 1921.48,853.922C1919.76,855.704 1918.91,858.641 1918.91,862.732L1918.91,879.563L1945.64,879.563L1945.64,888.868L1918.91,888.868L1918.91,978.562L1907.82,978.562Z" style="fill:rgb(2,43,85);fill-rule:nonzero;"/>
        <path d="M1968.8,945.892C1970.39,951.04 1972.67,955.495 1975.64,959.257C1978.61,963.019 1982.24,965.956 1986.53,968.067C1990.82,970.18 1995.6,971.235 2000.88,971.235C2006.16,971.235 2010.95,970.18 2015.24,968.067C2019.52,965.956 2023.16,963.019 2026.13,959.257C2029.09,955.495 2031.37,951.04 2032.96,945.892C2034.54,940.744 2035.33,935.134 2035.33,929.062C2035.33,922.99 2034.54,917.38 2032.96,912.232C2031.37,907.084 2029.09,902.629 2026.13,898.867C2023.16,895.105 2019.52,892.168 2015.24,890.057C2010.95,887.944 2006.16,886.889 2000.88,886.889C1995.6,886.889 1990.82,887.944 1986.53,890.057C1982.24,892.168 1978.61,895.105 1975.64,898.867C1972.67,902.629 1970.39,907.084 1968.8,912.232C1967.22,917.38 1966.43,922.99 1966.43,929.062C1966.43,935.134 1967.22,940.744 1968.8,945.892ZM2044.24,948.564C2042.13,954.835 2039.06,960.313 2035.03,964.999C2031.01,969.685 2026.13,973.446 2020.38,976.284C2014.64,979.122 2008.14,980.542 2000.88,980.542C1993.62,980.542 1987.12,979.122 1981.38,976.284C1975.64,973.446 1970.75,969.685 1966.73,964.999C1962.7,960.313 1959.63,954.835 1957.52,948.564C1955.41,942.295 1954.35,935.794 1954.35,929.062C1954.35,922.33 1955.41,915.829 1957.52,909.56C1959.63,903.289 1962.7,897.812 1966.73,893.125C1970.75,888.439 1975.64,884.678 1981.38,881.84C1987.12,879.002 1993.62,877.583 2000.88,877.583C2008.14,877.583 2014.64,879.002 2020.38,881.84C2026.13,884.678 2031.01,888.439 2035.03,893.125C2039.06,897.812 2042.13,903.289 2044.24,909.56C2046.35,915.829 2047.41,922.33 2047.41,929.062C2047.41,935.794 2046.35,942.295 2044.24,948.564Z" style="fill:rgb(2,43,85);fill-rule:nonzero;"/>
        <path d="M2073.15,978.562L2073.15,879.563L2083.84,879.563L2083.84,899.561L2084.24,899.561C2087.14,892.168 2091.33,886.657 2096.81,883.027C2102.29,879.397 2109.12,877.583 2117.3,877.583L2117.3,889.462L2114.53,889.462C2105.29,889.462 2097.93,891.904 2092.45,896.788C2086.98,901.672 2084.24,909.263 2084.24,919.558L2084.24,978.562L2073.15,978.562Z" style="fill:rgb(2,43,85);fill-rule:nonzero;"/>
        <path d="M2198.09,852.041L2198.09,968.464L2219.67,968.464C2239.6,968.464 2254.81,963.382 2265.31,953.218C2275.8,943.054 2281.05,928.732 2281.05,910.252C2281.05,891.772 2275.8,877.45 2265.31,867.286C2254.81,857.123 2239.6,852.041 2219.67,852.041L2198.09,852.041ZM2186.41,841.942L2221.65,841.942C2233.53,841.942 2243.99,843.691 2253.03,847.189C2262.07,850.688 2269.56,855.473 2275.5,861.545C2281.44,867.616 2285.93,874.811 2288.97,883.126C2292,891.442 2293.52,900.484 2293.52,910.252C2293.52,920.021 2292,929.062 2288.97,937.378C2285.93,945.694 2281.44,952.888 2275.5,958.96C2269.56,965.031 2262.07,969.816 2253.03,973.314C2243.99,976.813 2233.53,978.562 2221.65,978.562L2186.41,978.562L2186.41,841.942Z" style="fill:rgb(2,43,85);fill-rule:nonzero;"/>
        <path d="M2320.45,978.562L2320.45,879.563L2331.54,879.563L2331.54,978.562L2320.45,978.562ZM2319.66,861.148L2319.66,841.942L2332.53,841.942L2332.53,861.148L2319.66,861.148Z" style="fill:rgb(2,43,85);fill-rule:nonzero;"/>
        <path d="M2378.86,956.287C2385.06,963.612 2393.44,967.275 2404,967.275C2414.56,967.275 2422.94,963.612 2429.15,956.287C2435.35,948.961 2438.45,939.226 2438.45,927.082C2438.45,914.938 2435.35,905.203 2429.15,897.877C2422.94,890.552 2414.56,886.889 2404,886.889C2393.44,886.889 2385.06,890.552 2378.86,897.877C2372.65,905.203 2369.55,914.938 2369.55,927.082C2369.55,939.226 2372.65,948.961 2378.86,956.287ZM2437.66,1004.1C2430.01,1010.83 2419.58,1014.2 2406.38,1014.2C2393.84,1014.2 2383.84,1011.3 2376.38,1005.49C2368.92,999.682 2364.73,991.63 2363.81,981.333L2374.9,981.333C2375.56,989.386 2378.99,995.325 2385.19,999.153C2391.4,1002.98 2398.46,1004.9 2406.38,1004.9C2415.22,1004.9 2422.71,1002.62 2428.85,998.064C2434.99,993.511 2438.06,986.481 2438.06,976.978L2438.06,950.644L2437.86,950.644C2434.96,958.3 2430.34,964.537 2424,969.355C2417.67,974.173 2410.14,976.581 2401.43,976.581C2394.43,976.581 2388.2,975.295 2382.72,972.721C2377.24,970.147 2372.65,966.648 2368.96,962.227C2365.26,957.805 2362.42,952.558 2360.44,946.485C2358.46,940.414 2357.47,933.946 2357.47,927.082C2357.47,920.218 2358.46,913.75 2360.44,907.679C2362.42,901.606 2365.26,896.359 2368.96,891.938C2372.65,887.516 2377.24,884.018 2382.72,881.443C2388.2,878.869 2394.43,877.583 2401.43,877.583C2410.14,877.583 2417.67,879.991 2424,884.81C2430.34,889.627 2434.96,895.864 2437.86,903.521L2438.06,903.521L2438.06,879.563L2449.15,879.563L2449.15,976.978C2449.15,988.329 2445.32,997.371 2437.66,1004.1Z" style="fill:rgb(2,43,85);fill-rule:nonzero;"/>
        <path d="M2481.22,978.562L2481.22,879.563L2492.31,879.563L2492.31,978.562L2481.22,978.562ZM2480.43,861.148L2480.43,841.942L2493.3,841.942L2493.3,861.148L2480.43,861.148Z" style="fill:rgb(2,43,85);fill-rule:nonzero;"/>
        <path d="M2551.31,978.562C2544.58,978.562 2539.63,976.846 2536.46,973.413C2533.29,969.981 2531.71,965.23 2531.71,959.157L2531.71,888.868L2512.11,888.868L2512.11,879.563L2531.71,879.563L2531.71,856.991L2542.8,856.991L2542.8,879.563L2569.72,879.563L2569.72,888.868L2542.8,888.868L2542.8,957.772C2542.8,961.863 2543.69,964.801 2545.47,966.583C2547.25,968.364 2549.99,969.256 2553.69,969.256L2568.93,969.256L2568.93,978.562L2551.31,978.562Z" style="fill:rgb(2,43,85);fill-rule:nonzero;"/>
        <path d="M2595.86,960.049C2597.31,962.49 2599.16,964.537 2601.4,966.187C2603.65,967.837 2606.22,969.091 2609.13,969.948C2612.03,970.807 2614.93,971.235 2617.84,971.235C2629.19,971.235 2637.64,967.837 2643.18,961.039C2648.72,954.241 2651.5,945.166 2651.5,933.813L2651.5,927.478L2627.54,930.25C2617.64,931.306 2609.52,933.253 2603.18,936.091C2596.85,938.929 2593.68,944.044 2593.68,951.436C2593.68,954.735 2594.41,957.606 2595.86,960.049ZM2638.82,973.908C2632.75,978.33 2625.23,980.542 2616.25,980.542C2611.63,980.542 2607.21,979.914 2602.99,978.66C2598.76,977.406 2595.1,975.525 2592,973.018C2588.9,970.51 2586.42,967.375 2584.57,963.612C2582.73,959.851 2581.8,955.462 2581.8,950.446C2581.8,945.43 2582.92,941.206 2585.17,937.774C2587.41,934.342 2590.41,931.57 2594.18,929.458C2597.94,927.346 2602.39,925.696 2607.54,924.508C2612.69,923.32 2618.1,922.397 2623.78,921.736L2651.5,918.767L2651.5,915.004C2651.5,907.349 2649.32,900.748 2644.96,895.204C2640.61,889.66 2633.61,886.889 2623.97,886.889C2614.87,886.889 2608.13,889.298 2603.78,894.115C2599.42,898.934 2597.11,904.511 2596.85,910.847L2585.56,910.847C2586.09,901.475 2589.66,893.587 2596.25,887.186C2602.85,880.783 2612.09,877.583 2623.97,877.583C2629.25,877.583 2634.24,878.309 2638.92,879.761C2643.61,881.213 2647.7,883.489 2651.2,886.592C2654.7,889.693 2657.47,893.72 2659.51,898.669C2661.56,903.619 2662.58,909.526 2662.58,916.39L2662.58,978.562L2651.89,978.562L2651.89,956.584L2651.69,956.584C2649.19,963.712 2644.9,969.486 2638.82,973.908Z" style="fill:rgb(2,43,85);fill-rule:nonzero;"/>
        <rect x="2693.47" y="841.942" width="11.09" height="136.62" style="fill:rgb(2,43,85);fill-rule:nonzero;"/>
        <path d="M2766.53,841.942L2873.45,841.942L2873.45,852.041L2825.73,852.041L2825.73,978.562L2814.25,978.562L2814.25,852.041L2766.53,852.041L2766.53,841.942Z" style="fill:rgb(2,43,85);fill-rule:nonzero;"/>
        <path d="M2874.64,978.562L2874.64,879.563L2885.33,879.563L2885.33,899.561L2885.72,899.561C2888.63,892.168 2892.82,886.657 2898.3,883.027C2903.77,879.397 2910.61,877.583 2918.79,877.583L2918.79,889.462L2916.02,889.462C2906.78,889.462 2899.42,891.904 2893.94,896.788C2888.46,901.672 2885.72,909.263 2885.72,919.558L2885.72,978.562L2874.64,978.562Z" style="fill:rgb(2,43,85);fill-rule:nonzero;"/>
        <path d="M2942.55,960.049C2944,962.49 2945.85,964.537 2948.1,966.187C2950.34,967.837 2952.91,969.091 2955.82,969.948C2958.72,970.807 2961.63,971.235 2964.53,971.235C2975.88,971.235 2984.33,967.837 2989.87,961.039C2995.42,954.241 2998.19,945.166 2998.19,933.813L2998.19,927.478L2974.23,930.25C2964.33,931.306 2956.21,933.253 2949.88,936.091C2943.54,938.929 2940.37,944.044 2940.37,951.436C2940.37,954.735 2941.1,957.606 2942.55,960.049ZM2985.52,973.908C2979.45,978.33 2971.92,980.542 2962.95,980.542C2958.33,980.542 2953.9,979.914 2949.68,978.66C2945.46,977.406 2941.79,975.525 2938.69,973.018C2935.59,970.51 2933.11,967.375 2931.27,963.612C2929.42,959.851 2928.5,955.462 2928.5,950.446C2928.5,945.43 2929.62,941.206 2931.86,937.774C2934.1,934.342 2937.11,931.57 2940.87,929.458C2944.63,927.346 2949.09,925.696 2954.23,924.508C2959.38,923.32 2964.79,922.397 2970.47,921.736L2998.19,918.767L2998.19,915.004C2998.19,907.349 2996.01,900.748 2991.66,895.204C2987.3,889.66 2980.3,886.889 2970.67,886.889C2961.56,886.889 2954.83,889.298 2950.47,894.115C2946.12,898.934 2943.81,904.511 2943.54,910.847L2932.26,910.847C2932.78,901.475 2936.35,893.587 2942.95,887.186C2949.55,880.783 2958.79,877.583 2970.67,877.583C2975.95,877.583 2980.93,878.309 2985.62,879.761C2990.3,881.213 2994.4,883.489 2997.89,886.592C3001.39,889.693 3004.16,893.72 3006.21,898.669C3008.25,903.619 3009.28,909.526 3009.28,916.39L3009.28,978.562L2998.59,978.562L2998.59,956.584L2998.39,956.584C2995.88,963.712 2991.59,969.486 2985.52,973.908Z" style="fill:rgb(2,43,85);fill-rule:nonzero;"/>
        <path d="M3040.16,978.562L3040.16,879.563L3050.86,879.563L3050.86,899.561L3051.25,899.561C3054.16,892.301 3058.31,886.822 3063.73,883.126C3069.14,879.431 3075.54,877.583 3082.93,877.583C3093.23,877.583 3101.44,880.948 3107.58,887.681C3113.72,894.412 3116.79,902.992 3116.79,913.42L3116.79,978.562L3105.7,978.562L3105.7,918.172C3105.7,907.612 3103.33,899.791 3098.57,894.709C3093.82,889.627 3087.16,887.087 3078.58,887.087C3070,887.087 3063.3,889.792 3058.48,895.204C3053.66,900.616 3051.25,907.546 3051.25,915.994L3051.25,978.562L3040.16,978.562Z" style="fill:rgb(2,43,85);fill-rule:nonzero;"/>
        <path d="M3209.65,972.819C3202.92,977.968 3193.61,980.542 3181.73,980.542C3175.27,980.542 3169.52,979.552 3164.51,977.571C3159.49,975.592 3155.23,972.919 3151.74,969.553C3148.24,966.187 3145.5,962.293 3143.52,957.871C3141.54,953.449 3140.42,948.796 3140.15,943.912L3151.44,943.912C3151.7,947.344 3152.5,950.743 3153.82,954.108C3155.14,957.475 3157.05,960.412 3159.56,962.92C3162.07,965.428 3165.2,967.44 3168.96,968.959C3172.72,970.477 3177.05,971.235 3181.93,971.235C3189.85,971.235 3196.29,969.486 3201.24,965.988C3206.19,962.49 3208.66,957.903 3208.66,952.228C3208.66,946.948 3206.68,943.021 3202.72,940.447C3198.76,937.873 3192.56,935.596 3184.11,933.616L3173.02,931.042C3163.91,928.93 3156.62,925.894 3151.14,921.935C3145.67,917.974 3142.93,912.298 3142.93,904.906C3142.93,897.382 3146.19,890.947 3152.73,885.602C3159.26,880.256 3167.68,877.583 3177.97,877.583C3188.53,877.583 3197.51,880.52 3204.9,886.394C3212.29,892.268 3216.32,899.759 3216.98,908.866L3205.69,908.866C3205.03,902.794 3202.33,897.613 3197.57,893.323C3192.82,889.033 3186.29,886.889 3177.97,886.889C3171.37,886.889 3165.73,888.373 3161.04,891.344C3156.36,894.313 3154.01,898.57 3154.01,904.114C3154.01,908.998 3156.16,912.496 3160.45,914.608C3164.74,916.72 3170.45,918.634 3177.58,920.351L3188.86,922.924C3199.55,925.432 3207.37,928.798 3212.32,933.022C3217.27,937.246 3219.75,943.516 3219.75,951.832C3219.75,960.676 3216.38,967.672 3209.65,972.819Z" style="fill:rgb(2,43,85);fill-rule:nonzero;"/>
        <path d="M3250.44,978.562L3250.44,888.868L3230.64,888.868L3230.64,879.563L3250.44,879.563L3250.44,861.347C3250.44,855.274 3252.02,850.522 3255.19,847.091C3258.36,843.659 3263.31,841.942 3270.04,841.942L3287.47,841.942L3287.47,851.249L3272.42,851.249C3268.59,851.249 3265.82,852.14 3264.1,853.922C3262.39,855.704 3261.53,858.641 3261.53,862.732L3261.53,879.563L3288.26,879.563L3288.26,888.868L3261.53,888.868L3261.53,978.562L3250.44,978.562Z" style="fill:rgb(2,43,85);fill-rule:nonzero;"/>
        <path d="M3311.43,945.892C3313.01,951.04 3315.29,955.495 3318.26,959.257C3321.23,963.019 3324.86,965.956 3329.15,968.067C3333.44,970.18 3338.22,971.235 3343.5,971.235C3348.78,971.235 3353.57,970.18 3357.86,968.067C3362.15,965.956 3365.78,963.019 3368.75,959.257C3371.72,955.495 3373.99,951.04 3375.58,945.892C3377.16,940.744 3377.95,935.134 3377.95,929.062C3377.95,922.99 3377.16,917.38 3375.58,912.232C3373.99,907.084 3371.72,902.629 3368.75,898.867C3365.78,895.105 3362.15,892.168 3357.86,890.057C3353.57,887.944 3348.78,886.889 3343.5,886.889C3338.22,886.889 3333.44,887.944 3329.15,890.057C3324.86,892.168 3321.23,895.105 3318.26,898.867C3315.29,902.629 3313.01,907.084 3311.43,912.232C3309.84,917.38 3309.05,922.99 3309.05,929.062C3309.05,935.134 3309.84,940.744 3311.43,945.892ZM3386.86,948.564C3384.75,954.835 3381.68,960.313 3377.66,964.999C3373.63,969.685 3368.75,973.446 3363,976.284C3357.26,979.122 3350.76,980.542 3343.5,980.542C3336.24,980.542 3329.74,979.122 3324,976.284C3318.26,973.446 3313.37,969.685 3309.35,964.999C3305.32,960.313 3302.25,954.835 3300.14,948.564C3298.03,942.295 3296.97,935.794 3296.97,929.062C3296.97,922.33 3298.03,915.829 3300.14,909.56C3302.25,903.289 3305.32,897.812 3309.35,893.125C3313.37,888.439 3318.26,884.678 3324,881.84C3329.74,879.002 3336.24,877.583 3343.5,877.583C3350.76,877.583 3357.26,879.002 3363,881.84C3368.75,884.678 3373.63,888.439 3377.66,893.125C3381.68,897.812 3384.75,903.289 3386.86,909.56C3388.98,915.829 3390.03,922.33 3390.03,929.062C3390.03,935.794 3388.98,942.295 3386.86,948.564Z" style="fill:rgb(2,43,85);fill-rule:nonzero;"/>
        <path d="M3415.77,978.562L3415.77,879.563L3426.46,879.563L3426.46,899.561L3426.86,899.561C3429.76,892.168 3433.95,886.657 3439.43,883.027C3444.91,879.397 3451.74,877.583 3459.92,877.583L3459.92,889.462L3457.15,889.462C3447.91,889.462 3440.55,891.904 3435.08,896.788C3429.6,901.672 3426.86,909.263 3426.86,919.558L3426.86,978.562L3415.77,978.562Z" style="fill:rgb(2,43,85);fill-rule:nonzero;"/>
        <path d="M3490.81,978.562L3479.72,978.562L3479.72,879.563L3490.42,879.563L3490.42,899.561L3490.81,899.561C3493.72,892.301 3497.64,886.822 3502.59,883.126C3507.54,879.431 3513.58,877.583 3520.71,877.583C3528.76,877.583 3535.49,879.728 3540.91,884.018C3546.32,888.308 3550.01,893.818 3551.99,900.55L3552.19,900.55C3554.96,893.423 3558.96,887.813 3564.17,883.721C3569.38,879.629 3575.82,877.583 3583.48,877.583C3593.77,877.583 3601.82,880.948 3607.63,887.681C3613.44,894.412 3616.34,902.992 3616.34,913.42L3616.34,978.562L3605.25,978.562L3605.25,918.172C3605.25,907.612 3603.04,899.791 3598.62,894.709C3594.2,889.627 3587.83,887.087 3579.52,887.087C3571.2,887.087 3564.8,889.792 3560.31,895.204C3555.82,900.616 3553.58,907.546 3553.58,915.994L3553.58,978.562L3542.49,978.562L3542.49,918.172C3542.49,907.612 3540.28,899.791 3535.86,894.709C3531.43,889.627 3525,887.087 3516.55,887.087C3508.24,887.087 3501.87,889.792 3497.45,895.204C3493.02,900.616 3490.81,907.546 3490.81,915.994L3490.81,978.562Z" style="fill:rgb(2,43,85);fill-rule:nonzero;"/>
        <path d="M3653.76,960.049C3655.22,962.49 3657.07,964.537 3659.31,966.187C3661.55,967.837 3664.13,969.091 3667.03,969.948C3669.93,970.807 3672.84,971.235 3675.74,971.235C3687.09,971.235 3695.54,967.837 3701.09,961.039C3706.63,954.241 3709.4,945.166 3709.4,933.813L3709.4,927.478L3685.44,930.25C3675.54,931.306 3667.43,933.253 3661.09,936.091C3654.75,938.929 3651.59,944.044 3651.59,951.436C3651.59,954.735 3652.31,957.606 3653.76,960.049ZM3696.73,973.908C3690.66,978.33 3683.13,980.542 3674.16,980.542C3669.54,980.542 3665.12,979.914 3660.89,978.66C3656.67,977.406 3653.01,975.525 3649.9,973.018C3646.8,970.51 3644.33,967.375 3642.48,963.612C3640.63,959.851 3639.71,955.462 3639.71,950.446C3639.71,945.43 3640.83,941.206 3643.07,937.774C3645.32,934.342 3648.32,931.57 3652.08,929.458C3655.84,927.346 3660.3,925.696 3665.45,924.508C3670.59,923.32 3676.01,922.397 3681.68,921.736L3709.4,918.767L3709.4,915.004C3709.4,907.349 3707.22,900.748 3702.87,895.204C3698.51,889.66 3691.52,886.889 3681.88,886.889C3672.77,886.889 3666.04,889.298 3661.68,894.115C3657.33,898.934 3655.02,904.511 3654.75,910.847L3643.47,910.847C3644,901.475 3647.56,893.587 3654.16,887.186C3660.76,880.783 3670,877.583 3681.88,877.583C3687.16,877.583 3692.14,878.309 3696.83,879.761C3701.52,881.213 3705.61,883.489 3709.11,886.592C3712.6,889.693 3715.38,893.72 3717.42,898.669C3719.47,903.619 3720.49,909.526 3720.49,916.39L3720.49,978.562L3709.8,978.562L3709.8,956.584L3709.6,956.584C3707.09,963.712 3702.8,969.486 3696.73,973.908Z" style="fill:rgb(2,43,85);fill-rule:nonzero;"/>
        <path d="M3776.33,978.562C3769.59,978.562 3764.64,976.846 3761.48,973.413C3758.31,969.981 3756.72,965.23 3756.72,959.157L3756.72,888.868L3737.12,888.868L3737.12,879.563L3756.72,879.563L3756.72,856.991L3767.81,856.991L3767.81,879.563L3794.74,879.563L3794.74,888.868L3767.81,888.868L3767.81,957.772C3767.81,961.863 3768.7,964.801 3770.48,966.583C3772.27,968.364 3775,969.256 3778.7,969.256L3793.95,969.256L3793.95,978.562L3776.33,978.562Z" style="fill:rgb(2,43,85);fill-rule:nonzero;"/>
        <path d="M3814.34,978.562L3814.34,879.563L3825.43,879.563L3825.43,978.562L3814.34,978.562ZM3813.55,861.148L3813.55,841.942L3826.42,841.942L3826.42,861.148L3813.55,861.148Z" style="fill:rgb(2,43,85);fill-rule:nonzero;"/>
        <path d="M3865.62,945.892C3867.2,951.04 3869.48,955.495 3872.45,959.257C3875.42,963.019 3879.05,965.956 3883.34,968.067C3887.63,970.18 3892.41,971.235 3897.69,971.235C3902.97,971.235 3907.76,970.18 3912.05,968.067C3916.34,965.956 3919.97,963.019 3922.94,959.257C3925.91,955.495 3928.19,951.04 3929.77,945.892C3931.35,940.744 3932.15,935.134 3932.15,929.062C3932.15,922.99 3931.35,917.38 3929.77,912.232C3928.19,907.084 3925.91,902.629 3922.94,898.867C3919.97,895.105 3916.34,892.168 3912.05,890.057C3907.76,887.944 3902.97,886.889 3897.69,886.889C3892.41,886.889 3887.63,887.944 3883.34,890.057C3879.05,892.168 3875.42,895.105 3872.45,898.867C3869.48,902.629 3867.2,907.084 3865.62,912.232C3864.03,917.38 3863.24,922.99 3863.24,929.062C3863.24,935.134 3864.03,940.744 3865.62,945.892ZM3941.06,948.564C3938.94,954.835 3935.87,960.313 3931.85,964.999C3927.82,969.685 3922.94,973.446 3917.2,976.284C3911.45,979.122 3904.95,980.542 3897.69,980.542C3890.43,980.542 3883.93,979.122 3878.19,976.284C3872.45,973.446 3867.57,969.685 3863.54,964.999C3859.51,960.313 3856.44,954.835 3854.33,948.564C3852.22,942.295 3851.16,935.794 3851.16,929.062C3851.16,922.33 3852.22,915.829 3854.33,909.56C3856.44,903.289 3859.51,897.812 3863.54,893.125C3867.57,888.439 3872.45,884.678 3878.19,881.84C3883.93,879.002 3890.43,877.583 3897.69,877.583C3904.95,877.583 3911.45,879.002 3917.2,881.84C3922.94,884.678 3927.82,888.439 3931.85,893.125C3935.87,897.812 3938.94,903.289 3941.06,909.56C3943.17,915.829 3944.22,922.33 3944.22,929.062C3944.22,935.794 3943.17,942.295 3941.06,948.564Z" style="fill:rgb(2,43,85);fill-rule:nonzero;"/>
        <path d="M3969.96,978.562L3969.96,879.563L3980.65,879.563L3980.65,899.561L3981.05,899.561C3983.95,892.301 3988.11,886.822 3993.52,883.126C3998.94,879.431 4005.34,877.583 4012.73,877.583C4023.03,877.583 4031.24,880.948 4037.38,887.681C4043.52,894.412 4046.59,902.992 4046.59,913.42L4046.59,978.562L4035.5,978.562L4035.5,918.172C4035.5,907.612 4033.12,899.791 4028.37,894.709C4023.62,889.627 4016.95,887.087 4008.37,887.087C3999.79,887.087 3993.09,889.792 3988.28,895.204C3983.46,900.616 3981.05,907.546 3981.05,915.994L3981.05,978.562L3969.96,978.562Z" style="fill:rgb(2,43,85);fill-rule:nonzero;"/>
    </g>
</svg>
