<svg width="36" height="36" viewBox="0 0 36 36" fill="none" xmlns="http://www.w3.org/2000/svg">
<path fill-rule="evenodd" clip-rule="evenodd" d="M23.651 7.47044L26.6217 3.75L28.2767 5.08421L25.3061 8.80465L23.651 7.47044ZM29.1592 24.494L19.2605 7.86389L21.0816 6.76954L30.9803 23.3996L29.1592 24.494ZM17.1223 8.66418L27.3314 25.8562L20.6846 27.4245L21.5909 30.5584L12.6771 32.8564L11.6946 29.5457L6.27038 30.8256L2.54037 24.3853L17.1223 8.66418ZM13.8692 29.412L14.1272 30.2814L18.9422 29.0402L18.7129 28.2475L13.8692 29.412ZM27.6577 12.1358L31.9015 9.37478L33.0548 11.1644L28.8109 13.9254L27.6577 12.1358ZM5.16668 24.6809L16.748 12.1949L24.0234 24.4466L7.31437 28.3892L5.16668 24.6809ZM36 17.6868L31.3954 18.6783L30.9508 16.5935L35.5554 15.6021L36 17.6868ZM3.02373 32.4423L0 27.0269L1.85057 25.9837L4.8743 31.3991L3.02373 32.4423Z" fill="#ffffff"/>
</svg>
